<svg xmlns="http://www.w3.org/2000/svg" height="337" width="960.0" font-size="16" font-family="sans-serif" stroke-width="2">
<g transform="translate(10.0 0)">
<g fill="hsl(0, 100%, 40%)">
<text y="22">trivariate.(x * y) * z.transformers</text>
<text y="22" x="461.89489765390107" text-anchor="end">1.16 μs</text>
</g>
<g>
<title>1.16 μs ±  83 ns</title>
<rect y="28" rx="5" height="22" width="461.89489765390107" fill="hsl(0, 100%, 80%)" stroke="hsl(0, 100%, 55%)" />
<g stroke="hsl(0, 100%, 40%)"><line x1="428.8011406916716" x2="494.98865461613053" y1="39" y2="39" />
<line x1="428.8011406916716" x2="428.8011406916716" y1="33" y2="45" />
<line x1="494.98865461613053" x2="494.98865461613053" y1="33" y2="45" />
</g>
</g>
<g fill="hsl(60, 100%, 40%)">
<text y="77">trivariate.(x * y) * z.ad</text>
<text y="77" x="791.368494758038" text-anchor="end">1.98 μs</text>
</g>
<g>
<title>1.98 μs ± 185 ns</title>
<rect y="83" rx="5" height="22" width="791.368494758038" fill="hsl(60, 100%, 80%)" stroke="hsl(60, 100%, 55%)" />
<g stroke="hsl(60, 100%, 40%)"><line x1="717.5332203109318" x2="865.2037692051441" y1="94" y2="94" />
<line x1="717.5332203109318" x2="717.5332203109318" y1="88" y2="100" />
<line x1="865.2037692051441" x2="865.2037692051441" y1="88" y2="100" />
</g>
</g>
<g fill="hsl(120, 100%, 40%)">
<text y="132">trivariate.(x * y) * z.ad/double</text>
<text y="132" x="804.4309590849005" text-anchor="end">2.02 μs</text>
</g>
<g>
<title>2.02 μs ± 193 ns</title>
<rect y="138" rx="5" height="22" width="804.4309590849005" fill="hsl(120, 100%, 80%)" stroke="hsl(120, 100%, 55%)" />
<g stroke="hsl(120, 100%, 40%)"><line x1="727.274421644285" x2="881.5874965255159" y1="149" y2="149" />
<line x1="727.274421644285" x2="727.274421644285" y1="143" y2="155" />
<line x1="881.5874965255159" x2="881.5874965255159" y1="143" y2="155" />
</g>
</g>
<g fill="hsl(180, 100%, 40%)">
<text y="187">trivariate.(x * y) * z.backprop</text>
<text y="187" x="893.4017946373064" text-anchor="end">2.24 μs</text>
</g>
<g>
<title>2.24 μs ± 117 ns</title>
<rect y="193" rx="5" height="22" width="893.4017946373064" fill="hsl(180, 100%, 80%)" stroke="hsl(180, 100%, 55%)" />
<g stroke="hsl(180, 100%, 40%)"><line x1="846.8035892746127" x2="940.0" y1="204" y2="204" />
<line x1="846.8035892746127" x2="846.8035892746127" y1="198" y2="210" />
<line x1="940.0" x2="940.0" y1="198" y2="210" />
</g>
</g>
<text fill="hsl(240, 100%, 40%)" y="242">trivariate.(x * y) * z.primops 276  ns</text>
<g>
<title>276  ns ±  24 ns</title>
<rect y="248" rx="5" height="22" width="109.91042939318004" fill="hsl(240, 100%, 80%)" stroke="hsl(240, 100%, 55%)" />
<g stroke="hsl(240, 100%, 40%)"><line x1="100.3439473957814" x2="119.47691139057868" y1="259" y2="259" />
<line x1="100.3439473957814" x2="100.3439473957814" y1="253" y2="265" />
<line x1="119.47691139057868" x2="119.47691139057868" y1="253" y2="265" />
</g>
</g>
<text fill="hsl(300, 100%, 40%)" y="297">trivariate.(x * y) * z.primops/double 170  ns</text>
<g>
<title>170  ns ±  13 ns</title>
<rect y="303" rx="5" height="22" width="67.94228643328036" fill="hsl(300, 100%, 80%)" stroke="hsl(300, 100%, 55%)" />
<g stroke="hsl(300, 100%, 40%)"><line x1="62.599385095895755" x2="73.28518777066496" y1="314" y2="314" />
<line x1="62.599385095895755" x2="62.599385095895755" y1="308" y2="320" />
<line x1="73.28518777066496" x2="73.28518777066496" y1="308" y2="320" />
</g>
</g>
</g>
</svg>
