<svg xmlns="http://www.w3.org/2000/svg" height="337" width="960.0" font-size="16" font-family="sans-serif" stroke-width="2">
<g transform="translate(10.0 0)">
<g fill="hsl(0, 100%, 40%)">
<text y="22">trivariate.(x * y) * z.transformers</text>
<text y="22" x="461.80444886698945" text-anchor="end">1.17 μs</text>
</g>
<g>
<title>1.17 μs ±  95 ns</title>
<rect y="28" rx="5" height="22" width="461.80444886698945" fill="hsl(0, 100%, 80%)" stroke="hsl(0, 100%, 55%)" />
<g stroke="hsl(0, 100%, 40%)"><line x1="424.1728900798331" x2="499.4360076541458" y1="39" y2="39" />
<line x1="424.1728900798331" x2="424.1728900798331" y1="33" y2="45" />
<line x1="499.4360076541458" x2="499.4360076541458" y1="33" y2="45" />
</g>
</g>
<g fill="hsl(60, 100%, 40%)">
<text y="77">trivariate.(x * y) * z.ad</text>
<text y="77" x="798.1152381649918" text-anchor="end">2.02 μs</text>
</g>
<g>
<title>2.02 μs ± 164 ns</title>
<rect y="83" rx="5" height="22" width="798.1152381649918" fill="hsl(60, 100%, 80%)" stroke="hsl(60, 100%, 55%)" />
<g stroke="hsl(60, 100%, 40%)"><line x1="733.1633291324767" x2="863.0671471975068" y1="94" y2="94" />
<line x1="733.1633291324767" x2="733.1633291324767" y1="88" y2="100" />
<line x1="863.0671471975068" x2="863.0671471975068" y1="88" y2="100" />
</g>
</g>
<g fill="hsl(120, 100%, 40%)">
<text y="132">trivariate.(x * y) * z.ad/double</text>
<text y="132" x="811.2396735959752" text-anchor="end">2.05 μs</text>
</g>
<g>
<title>2.05 μs ± 189 ns</title>
<rect y="138" rx="5" height="22" width="811.2396735959752" fill="hsl(120, 100%, 80%)" stroke="hsl(120, 100%, 55%)" />
<g stroke="hsl(120, 100%, 40%)"><line x1="736.5550282737005" x2="885.9243189182499" y1="149" y2="149" />
<line x1="736.5550282737005" x2="736.5550282737005" y1="143" y2="155" />
<line x1="885.9243189182499" x2="885.9243189182499" y1="143" y2="155" />
</g>
</g>
<g fill="hsl(180, 100%, 40%)">
<text y="187">trivariate.(x * y) * z.backprop</text>
<text y="187" x="871.026482233071" text-anchor="end">2.20 μs</text>
</g>
<g>
<title>2.20 μs ± 174 ns</title>
<rect y="193" rx="5" height="22" width="871.026482233071" fill="hsl(180, 100%, 80%)" stroke="hsl(180, 100%, 55%)" />
<g stroke="hsl(180, 100%, 40%)"><line x1="802.0529644661419" x2="940.0" y1="204" y2="204" />
<line x1="802.0529644661419" x2="802.0529644661419" y1="198" y2="210" />
<line x1="940.0" x2="940.0" y1="198" y2="210" />
</g>
</g>
<text fill="hsl(240, 100%, 40%)" y="242">trivariate.(x * y) * z.primops 281  ns</text>
<g>
<title>281  ns ±  27 ns</title>
<rect y="248" rx="5" height="22" width="110.99466011366727" fill="hsl(240, 100%, 80%)" stroke="hsl(240, 100%, 55%)" />
<g stroke="hsl(240, 100%, 40%)"><line x1="100.13979844307335" x2="121.84952178426119" y1="259" y2="259" />
<line x1="100.13979844307335" x2="100.13979844307335" y1="253" y2="265" />
<line x1="121.84952178426119" x2="121.84952178426119" y1="253" y2="265" />
</g>
</g>
<text fill="hsl(300, 100%, 40%)" y="297">trivariate.(x * y) * z.primops/double 170  ns</text>
<g>
<title>170  ns ± 9.3 ns</title>
<rect y="303" rx="5" height="22" width="67.1838939666777" fill="hsl(300, 100%, 80%)" stroke="hsl(300, 100%, 55%)" />
<g stroke="hsl(300, 100%, 40%)"><line x1="63.496232277899715" x2="70.8715556554557" y1="314" y2="314" />
<line x1="63.496232277899715" x2="63.496232277899715" y1="308" y2="320" />
<line x1="70.8715556554557" x2="70.8715556554557" y1="308" y2="320" />
</g>
</g>
</g>
</svg>
