<svg xmlns="http://www.w3.org/2000/svg" height="337" width="960.0" font-size="16" font-family="sans-serif" stroke-width="2">
<g transform="translate(10.0 0)">
<text fill="hsl(0, 100%, 40%)" y="22">trivariate.((tanh (exp (y + (z ^ 2)) * cosh x) + (x ^ 2)) ^ 3) - (((((x * ((z ^ 2) - 1)) * cos x) + y) ** (2 * z)) * exp (x * sin ((x + ((y * z) * x)) + 1))).transformers 11.1 μs</text>
<g>
<title>11.1 μs ± 733 ns</title>
<rect y="28" rx="5" height="22" width="775.6948641496526" fill="hsl(0, 100%, 80%)" stroke="hsl(0, 100%, 55%)" />
<g stroke="hsl(0, 100%, 40%)"><line x1="724.3574862450546" x2="827.0322420542507" y1="39" y2="39" />
<line x1="724.3574862450546" x2="724.3574862450546" y1="33" y2="45" />
<line x1="827.0322420542507" x2="827.0322420542507" y1="33" y2="45" />
</g>
</g>
<text fill="hsl(60, 100%, 40%)" y="77">trivariate.((tanh (exp (y + (z ^ 2)) * cosh x) + (x ^ 2)) ^ 3) - (((((x * ((z ^ 2) - 1)) * cos x) + y) ** (2 * z)) * exp (x * sin ((x + ((y * z) * x)) + 1))).ad 7.75 μs</text>
<g>
<title>7.75 μs ± 418 ns</title>
<rect y="83" rx="5" height="22" width="542.7035392855253" fill="hsl(60, 100%, 80%)" stroke="hsl(60, 100%, 55%)" />
<g stroke="hsl(60, 100%, 40%)"><line x1="513.3942339149298" x2="572.0128446561207" y1="94" y2="94" />
<line x1="513.3942339149298" x2="513.3942339149298" y1="88" y2="100" />
<line x1="572.0128446561207" x2="572.0128446561207" y1="88" y2="100" />
</g>
</g>
<text fill="hsl(120, 100%, 40%)" y="132">trivariate.((tanh (exp (y + (z ^ 2)) * cosh x) + (x ^ 2)) ^ 3) - (((((x * ((z ^ 2) - 1)) * cos x) + y) ** (2 * z)) * exp (x * sin ((x + ((y * z) * x)) + 1))).ad/double 6.10 μs</text>
<g>
<title>6.10 μs ± 383 ns</title>
<rect y="138" rx="5" height="22" width="427.10691037431786" fill="hsl(120, 100%, 80%)" stroke="hsl(120, 100%, 55%)" />
<g stroke="hsl(120, 100%, 40%)"><line x1="400.2741852668009" x2="453.93963548183484" y1="149" y2="149" />
<line x1="400.2741852668009" x2="400.2741852668009" y1="143" y2="155" />
<line x1="453.93963548183484" x2="453.93963548183484" y1="143" y2="155" />
</g>
</g>
<text fill="hsl(180, 100%, 40%)" y="187">trivariate.((tanh (exp (y + (z ^ 2)) * cosh x) + (x ^ 2)) ^ 3) - (((((x * ((z ^ 2) - 1)) * cos x) + y) ** (2 * z)) * exp (x * sin ((x + ((y * z) * x)) + 1))).backprop 12.7 μs</text>
<g>
<title>12.7 μs ± 682 ns</title>
<rect y="193" rx="5" height="22" width="892.2513307811945" fill="hsl(180, 100%, 80%)" stroke="hsl(180, 100%, 55%)" />
<g stroke="hsl(180, 100%, 40%)"><line x1="844.502661562389" x2="940.0" y1="204" y2="204" />
<line x1="844.502661562389" x2="844.502661562389" y1="198" y2="210" />
<line x1="940.0" x2="940.0" y1="198" y2="210" />
</g>
</g>
<text fill="hsl(240, 100%, 40%)" y="242">trivariate.((tanh (exp (y + (z ^ 2)) * cosh x) + (x ^ 2)) ^ 3) - (((((x * ((z ^ 2) - 1)) * cos x) + y) ** (2 * z)) * exp (x * sin ((x + ((y * z) * x)) + 1))).primops 5.46 μs</text>
<g>
<title>5.46 μs ± 428 ns</title>
<rect y="248" rx="5" height="22" width="382.42254864626597" fill="hsl(240, 100%, 80%)" stroke="hsl(240, 100%, 55%)" />
<g stroke="hsl(240, 100%, 40%)"><line x1="352.41497569456607" x2="412.43012159796587" y1="259" y2="259" />
<line x1="352.41497569456607" x2="352.41497569456607" y1="253" y2="265" />
<line x1="412.43012159796587" x2="412.43012159796587" y1="253" y2="265" />
</g>
</g>
<text fill="hsl(300, 100%, 40%)" y="297">trivariate.((tanh (exp (y + (z ^ 2)) * cosh x) + (x ^ 2)) ^ 3) - (((((x * ((z ^ 2) - 1)) * cos x) + y) ** (2 * z)) * exp (x * sin ((x + ((y * z) * x)) + 1))).primops/double 3.67 μs</text>
<g>
<title>3.67 μs ± 351 ns</title>
<rect y="303" rx="5" height="22" width="256.79574865431437" fill="hsl(300, 100%, 80%)" stroke="hsl(300, 100%, 55%)" />
<g stroke="hsl(300, 100%, 40%)"><line x1="232.19106314196267" x2="281.40043416666606" y1="314" y2="314" />
<line x1="232.19106314196267" x2="232.19106314196267" y1="308" y2="320" />
<line x1="281.40043416666606" x2="281.40043416666606" y1="308" y2="320" />
</g>
</g>
</g>
</svg>
