<svg xmlns="http://www.w3.org/2000/svg" height="337" width="960.0" font-size="16" font-family="sans-serif" stroke-width="2">
<g transform="translate(10.0 0)">
<text fill="hsl(0, 100%, 40%)" y="22">trivariate.((tanh (exp (y + (z ^ 2)) * cosh x) + (x ^ 2)) ^ 3) - (((((x * ((z ^ 2) - 1)) * cos x) + y) ** (2 * z)) * exp (x * sin ((x + ((y * z) * x)) + 1))).transformers 10.9 μs</text>
<g>
<title>10.9 μs ± 673 ns</title>
<rect y="28" rx="5" height="22" width="768.3284255504565" fill="hsl(0, 100%, 80%)" stroke="hsl(0, 100%, 55%)" />
<g stroke="hsl(0, 100%, 40%)"><line x1="721.0353430645649" x2="815.621508036348" y1="39" y2="39" />
<line x1="721.0353430645649" x2="721.0353430645649" y1="33" y2="45" />
<line x1="815.621508036348" x2="815.621508036348" y1="33" y2="45" />
</g>
</g>
<text fill="hsl(60, 100%, 40%)" y="77">trivariate.((tanh (exp (y + (z ^ 2)) * cosh x) + (x ^ 2)) ^ 3) - (((((x * ((z ^ 2) - 1)) * cos x) + y) ** (2 * z)) * exp (x * sin ((x + ((y * z) * x)) + 1))).ad 7.54 μs</text>
<g>
<title>7.54 μs ± 666 ns</title>
<rect y="83" rx="5" height="22" width="529.6450232270488" fill="hsl(60, 100%, 80%)" stroke="hsl(60, 100%, 55%)" />
<g stroke="hsl(60, 100%, 40%)"><line x1="482.8492315044521" x2="576.4408149496454" y1="94" y2="94" />
<line x1="482.8492315044521" x2="482.8492315044521" y1="88" y2="100" />
<line x1="576.4408149496454" x2="576.4408149496454" y1="88" y2="100" />
</g>
</g>
<text fill="hsl(120, 100%, 40%)" y="132">trivariate.((tanh (exp (y + (z ^ 2)) * cosh x) + (x ^ 2)) ^ 3) - (((((x * ((z ^ 2) - 1)) * cos x) + y) ** (2 * z)) * exp (x * sin ((x + ((y * z) * x)) + 1))).ad/double 6.23 μs</text>
<g>
<title>6.23 μs ± 366 ns</title>
<rect y="138" rx="5" height="22" width="437.843363248554" fill="hsl(120, 100%, 80%)" stroke="hsl(120, 100%, 55%)" />
<g stroke="hsl(120, 100%, 40%)"><line x1="412.1558636877947" x2="463.5308628093133" y1="149" y2="149" />
<line x1="412.1558636877947" x2="412.1558636877947" y1="143" y2="155" />
<line x1="463.5308628093133" x2="463.5308628093133" y1="143" y2="155" />
</g>
</g>
<text fill="hsl(180, 100%, 40%)" y="187">trivariate.((tanh (exp (y + (z ^ 2)) * cosh x) + (x ^ 2)) ^ 3) - (((((x * ((z ^ 2) - 1)) * cos x) + y) ** (2 * z)) * exp (x * sin ((x + ((y * z) * x)) + 1))).backprop 12.7 μs</text>
<g>
<title>12.7 μs ± 697 ns</title>
<rect y="193" rx="5" height="22" width="891.0035068978361" fill="hsl(180, 100%, 80%)" stroke="hsl(180, 100%, 55%)" />
<g stroke="hsl(180, 100%, 40%)"><line x1="842.0070137956723" x2="940.0" y1="204" y2="204" />
<line x1="842.0070137956723" x2="842.0070137956723" y1="198" y2="210" />
<line x1="940.0" x2="940.0" y1="198" y2="210" />
</g>
</g>
<text fill="hsl(240, 100%, 40%)" y="242">trivariate.((tanh (exp (y + (z ^ 2)) * cosh x) + (x ^ 2)) ^ 3) - (((((x * ((z ^ 2) - 1)) * cos x) + y) ** (2 * z)) * exp (x * sin ((x + ((y * z) * x)) + 1))).primops 5.35 μs</text>
<g>
<title>5.35 μs ± 420 ns</title>
<rect y="248" rx="5" height="22" width="376.22562214054295" fill="hsl(240, 100%, 80%)" stroke="hsl(240, 100%, 55%)" />
<g stroke="hsl(240, 100%, 40%)"><line x1="346.73057326183664" x2="405.72067101924927" y1="259" y2="259" />
<line x1="346.73057326183664" x2="346.73057326183664" y1="253" y2="265" />
<line x1="405.72067101924927" x2="405.72067101924927" y1="253" y2="265" />
</g>
</g>
<text fill="hsl(300, 100%, 40%)" y="297">trivariate.((tanh (exp (y + (z ^ 2)) * cosh x) + (x ^ 2)) ^ 3) - (((((x * ((z ^ 2) - 1)) * cos x) + y) ** (2 * z)) * exp (x * sin ((x + ((y * z) * x)) + 1))).primops/double 3.60 μs</text>
<g>
<title>3.60 μs ± 341 ns</title>
<rect y="303" rx="5" height="22" width="252.66959962330716" fill="hsl(300, 100%, 80%)" stroke="hsl(300, 100%, 55%)" />
<g stroke="hsl(300, 100%, 40%)"><line x1="228.72388274732765" x2="276.6153164992867" y1="314" y2="314" />
<line x1="228.72388274732765" x2="228.72388274732765" y1="308" y2="320" />
<line x1="276.6153164992867" x2="276.6153164992867" y1="308" y2="320" />
</g>
</g>
</g>
</svg>
