<svg xmlns="http://www.w3.org/2000/svg" height="337" width="960.0" font-size="16" font-family="sans-serif" stroke-width="2">
<g transform="translate(10.0 0)">
<g fill="hsl(0, 100%, 40%)">
<text y="22">bivariate.x * y.transformers</text>
<text y="22" x="527.7542071760134" text-anchor="end">891  ns</text>
</g>
<g>
<title>891  ns ±  41 ns</title>
<rect y="28" rx="5" height="22" width="527.7542071760134" fill="hsl(0, 100%, 80%)" stroke="hsl(0, 100%, 55%)" />
<g stroke="hsl(0, 100%, 40%)"><line x1="503.2238887964881" x2="552.2845255555387" y1="39" y2="39" />
<line x1="503.2238887964881" x2="503.2238887964881" y1="33" y2="45" />
<line x1="552.2845255555387" x2="552.2845255555387" y1="33" y2="45" />
</g>
</g>
<g fill="hsl(60, 100%, 40%)">
<text y="77">bivariate.x * y.ad</text>
<text y="77" x="827.1221605656945" text-anchor="end">1.40 μs</text>
</g>
<g>
<title>1.40 μs ± 100 ns</title>
<rect y="83" rx="5" height="22" width="827.1221605656945" fill="hsl(60, 100%, 80%)" stroke="hsl(60, 100%, 55%)" />
<g stroke="hsl(60, 100%, 40%)"><line x1="768.0816839792149" x2="886.162637152174" y1="94" y2="94" />
<line x1="768.0816839792149" x2="768.0816839792149" y1="88" y2="100" />
<line x1="886.162637152174" x2="886.162637152174" y1="88" y2="100" />
</g>
</g>
<g fill="hsl(120, 100%, 40%)">
<text y="132">bivariate.x * y.ad/double</text>
<text y="132" x="875.0197065686882" text-anchor="end">1.48 μs</text>
</g>
<g>
<title>1.48 μs ± 110 ns</title>
<rect y="138" rx="5" height="22" width="875.0197065686882" fill="hsl(120, 100%, 80%)" stroke="hsl(120, 100%, 55%)" />
<g stroke="hsl(120, 100%, 40%)"><line x1="810.0394131373764" x2="940.0" y1="149" y2="149" />
<line x1="810.0394131373764" x2="810.0394131373764" y1="143" y2="155" />
<line x1="940.0" x2="940.0" y1="143" y2="155" />
</g>
</g>
<g fill="hsl(180, 100%, 40%)">
<text y="187">bivariate.x * y.backprop</text>
<text y="187" x="820.4616301515541" text-anchor="end">1.39 μs</text>
</g>
<g>
<title>1.39 μs ± 107 ns</title>
<rect y="193" rx="5" height="22" width="820.4616301515541" fill="hsl(180, 100%, 80%)" stroke="hsl(180, 100%, 55%)" />
<g stroke="hsl(180, 100%, 40%)"><line x1="757.0056725685572" x2="883.917587734551" y1="204" y2="204" />
<line x1="757.0056725685572" x2="757.0056725685572" y1="198" y2="210" />
<line x1="883.917587734551" x2="883.917587734551" y1="198" y2="210" />
</g>
</g>
<text fill="hsl(240, 100%, 40%)" y="242">bivariate.x * y.primops 163  ns</text>
<g>
<title>163  ns ±  15 ns</title>
<rect y="248" rx="5" height="22" width="96.32689215819687" fill="hsl(240, 100%, 80%)" stroke="hsl(240, 100%, 55%)" />
<g stroke="hsl(240, 100%, 40%)"><line x1="87.27207664897611" x2="105.38170766741763" y1="259" y2="259" />
<line x1="87.27207664897611" x2="87.27207664897611" y1="253" y2="265" />
<line x1="105.38170766741763" x2="105.38170766741763" y1="253" y2="265" />
</g>
</g>
<text fill="hsl(300, 100%, 40%)" y="297">bivariate.x * y.primops/double 103  ns</text>
<g>
<title>103  ns ± 6.5 ns</title>
<rect y="303" rx="5" height="22" width="60.86861363533272" fill="hsl(300, 100%, 80%)" stroke="hsl(300, 100%, 55%)" />
<g stroke="hsl(300, 100%, 40%)"><line x1="57.02994037628962" x2="64.70728689437581" y1="314" y2="314" />
<line x1="57.02994037628962" x2="57.02994037628962" y1="308" y2="320" />
<line x1="64.70728689437581" x2="64.70728689437581" y1="308" y2="320" />
</g>
</g>
</g>
</svg>
