<svg xmlns="http://www.w3.org/2000/svg" height="337" width="960.0" font-size="16" font-family="sans-serif" stroke-width="2">
<g transform="translate(10.0 0)">
<g fill="hsl(0, 100%, 40%)">
<text y="22">bivariate.x * y.transformers</text>
<text y="22" x="536.314937861528" text-anchor="end">894  ns</text>
</g>
<g>
<title>894  ns ±  63 ns</title>
<rect y="28" rx="5" height="22" width="536.314937861528" fill="hsl(0, 100%, 80%)" stroke="hsl(0, 100%, 55%)" />
<g stroke="hsl(0, 100%, 40%)"><line x1="498.55074886461233" x2="574.0791268584438" y1="39" y2="39" />
<line x1="498.55074886461233" x2="498.55074886461233" y1="33" y2="45" />
<line x1="574.0791268584438" x2="574.0791268584438" y1="33" y2="45" />
</g>
</g>
<g fill="hsl(60, 100%, 40%)">
<text y="77">bivariate.x * y.ad</text>
<text y="77" x="842.9937867908372" text-anchor="end">1.41 μs</text>
</g>
<g>
<title>1.41 μs ±  97 ns</title>
<rect y="83" rx="5" height="22" width="842.9937867908372" fill="hsl(60, 100%, 80%)" stroke="hsl(60, 100%, 55%)" />
<g stroke="hsl(60, 100%, 40%)"><line x1="784.7851408722993" x2="901.2024327093752" y1="94" y2="94" />
<line x1="784.7851408722993" x2="784.7851408722993" y1="88" y2="100" />
<line x1="901.2024327093752" x2="901.2024327093752" y1="88" y2="100" />
</g>
</g>
<g fill="hsl(120, 100%, 40%)">
<text y="132">bivariate.x * y.ad/double</text>
<text y="132" x="873.8266043771924" text-anchor="end">1.46 μs</text>
</g>
<g>
<title>1.46 μs ± 110 ns</title>
<rect y="138" rx="5" height="22" width="873.8266043771924" fill="hsl(120, 100%, 80%)" stroke="hsl(120, 100%, 55%)" />
<g stroke="hsl(120, 100%, 40%)"><line x1="807.6532087543849" x2="940.0" y1="149" y2="149" />
<line x1="807.6532087543849" x2="807.6532087543849" y1="143" y2="155" />
<line x1="940.0" x2="940.0" y1="143" y2="155" />
</g>
</g>
<g fill="hsl(180, 100%, 40%)">
<text y="187">bivariate.x * y.backprop</text>
<text y="187" x="825.6422676873565" text-anchor="end">1.38 μs</text>
</g>
<g>
<title>1.38 μs ±  82 ns</title>
<rect y="193" rx="5" height="22" width="825.6422676873565" fill="hsl(180, 100%, 80%)" stroke="hsl(180, 100%, 55%)" />
<g stroke="hsl(180, 100%, 40%)"><line x1="776.257220989392" x2="875.027314385321" y1="204" y2="204" />
<line x1="776.257220989392" x2="776.257220989392" y1="198" y2="210" />
<line x1="875.027314385321" x2="875.027314385321" y1="198" y2="210" />
</g>
</g>
<text fill="hsl(240, 100%, 40%)" y="242">bivariate.x * y.primops 165  ns</text>
<g>
<title>165  ns ±  15 ns</title>
<rect y="248" rx="5" height="22" width="98.90263930591729" fill="hsl(240, 100%, 80%)" stroke="hsl(240, 100%, 55%)" />
<g stroke="hsl(240, 100%, 40%)"><line x1="90.04305477041497" x2="107.76222384141961" y1="259" y2="259" />
<line x1="90.04305477041497" x2="90.04305477041497" y1="253" y2="265" />
<line x1="107.76222384141961" x2="107.76222384141961" y1="253" y2="265" />
</g>
</g>
<text fill="hsl(300, 100%, 40%)" y="297">bivariate.x * y.primops/double 105  ns</text>
<g>
<title>105  ns ± 6.4 ns</title>
<rect y="303" rx="5" height="22" width="62.90293025101671" fill="hsl(300, 100%, 80%)" stroke="hsl(300, 100%, 55%)" />
<g stroke="hsl(300, 100%, 40%)"><line x1="59.038107427649734" x2="66.76775307438369" y1="314" y2="314" />
<line x1="59.038107427649734" x2="59.038107427649734" y1="308" y2="320" />
<line x1="66.76775307438369" x2="66.76775307438369" y1="308" y2="320" />
</g>
</g>
</g>
</svg>
