<svg xmlns="http://www.w3.org/2000/svg" height="337" width="960.0" font-size="16" font-family="sans-serif" stroke-width="2">
<g transform="translate(10.0 0)">
<g fill="hsl(0, 100%, 40%)">
<text y="22">bivariate.(sin x * cos y) * ((x ^ 2) + y).transformers</text>
<text y="22" x="535.3783122964244" text-anchor="end">1.88 μs</text>
</g>
<g>
<title>1.88 μs ± 131 ns</title>
<rect y="28" rx="5" height="22" width="535.3783122964244" fill="hsl(0, 100%, 80%)" stroke="hsl(0, 100%, 55%)" />
<g stroke="hsl(0, 100%, 40%)"><line x1="497.87124974657377" x2="572.885374846275" y1="39" y2="39" />
<line x1="497.87124974657377" x2="497.87124974657377" y1="33" y2="45" />
<line x1="572.885374846275" x2="572.885374846275" y1="33" y2="45" />
</g>
</g>
<g fill="hsl(60, 100%, 40%)">
<text y="77">bivariate.(sin x * cos y) * ((x ^ 2) + y).ad</text>
<text y="77" x="677.460262155052" text-anchor="end">2.37 μs</text>
</g>
<g>
<title>2.37 μs ± 214 ns</title>
<rect y="83" rx="5" height="22" width="677.460262155052" fill="hsl(60, 100%, 80%)" stroke="hsl(60, 100%, 55%)" />
<g stroke="hsl(60, 100%, 40%)"><line x1="616.4204192975449" x2="738.5001050125591" y1="94" y2="94" />
<line x1="616.4204192975449" x2="616.4204192975449" y1="88" y2="100" />
<line x1="738.5001050125591" x2="738.5001050125591" y1="88" y2="100" />
</g>
</g>
<g fill="hsl(120, 100%, 40%)">
<text y="132">bivariate.(sin x * cos y) * ((x ^ 2) + y).ad/double</text>
<text y="132" x="623.3952927665164" text-anchor="end">2.19 μs</text>
</g>
<g>
<title>2.19 μs ± 195 ns</title>
<rect y="138" rx="5" height="22" width="623.3952927665164" fill="hsl(120, 100%, 80%)" stroke="hsl(120, 100%, 55%)" />
<g stroke="hsl(120, 100%, 40%)"><line x1="567.6972991741035" x2="679.0932863589293" y1="149" y2="149" />
<line x1="567.6972991741035" x2="567.6972991741035" y1="143" y2="155" />
<line x1="679.0932863589293" x2="679.0932863589293" y1="143" y2="155" />
</g>
</g>
<g fill="hsl(180, 100%, 40%)">
<text y="187">bivariate.(sin x * cos y) * ((x ^ 2) + y).backprop</text>
<text y="187" x="878.7205099846913" text-anchor="end">3.08 μs</text>
</g>
<g>
<title>3.08 μs ± 215 ns</title>
<rect y="193" rx="5" height="22" width="878.7205099846913" fill="hsl(180, 100%, 80%)" stroke="hsl(180, 100%, 55%)" />
<g stroke="hsl(180, 100%, 40%)"><line x1="817.4410199693825" x2="940.0" y1="204" y2="204" />
<line x1="817.4410199693825" x2="817.4410199693825" y1="198" y2="210" />
<line x1="940.0" x2="940.0" y1="198" y2="210" />
</g>
</g>
<text fill="hsl(240, 100%, 40%)" y="242">bivariate.(sin x * cos y) * ((x ^ 2) + y).primops 762  ns</text>
<g>
<title>762  ns ±  50 ns</title>
<rect y="248" rx="5" height="22" width="217.4829339416373" fill="hsl(240, 100%, 80%)" stroke="hsl(240, 100%, 55%)" />
<g stroke="hsl(240, 100%, 40%)"><line x1="203.16801038228215" x2="231.79785750099245" y1="259" y2="259" />
<line x1="203.16801038228215" x2="203.16801038228215" y1="253" y2="265" />
<line x1="231.79785750099245" x2="231.79785750099245" y1="253" y2="265" />
</g>
</g>
<text fill="hsl(300, 100%, 40%)" y="297">bivariate.(sin x * cos y) * ((x ^ 2) + y).primops/double 469  ns</text>
<g>
<title>469  ns ±  17 ns</title>
<rect y="303" rx="5" height="22" width="133.89143765228337" fill="hsl(300, 100%, 80%)" stroke="hsl(300, 100%, 55%)" />
<g stroke="hsl(300, 100%, 40%)"><line x1="128.99293562912234" x2="138.7899396754444" y1="314" y2="314" />
<line x1="128.99293562912234" x2="128.99293562912234" y1="308" y2="320" />
<line x1="138.7899396754444" x2="138.7899396754444" y1="308" y2="320" />
</g>
</g>
</g>
</svg>
