<svg xmlns="http://www.w3.org/2000/svg" height="337" width="960.0" font-size="16" font-family="sans-serif" stroke-width="2">
<g transform="translate(10.0 0)">
<g fill="hsl(0, 100%, 40%)">
<text y="22">bivariate.(sin x * cos y) * ((x ^ 2) + y).transformers</text>
<text y="22" x="526.4651577305438" text-anchor="end">1.89 μs</text>
</g>
<g>
<title>1.89 μs ± 108 ns</title>
<rect y="28" rx="5" height="22" width="526.4651577305438" fill="hsl(0, 100%, 80%)" stroke="hsl(0, 100%, 55%)" />
<g stroke="hsl(0, 100%, 40%)"><line x1="496.4209471212423" x2="556.5093683398452" y1="39" y2="39" />
<line x1="496.4209471212423" x2="496.4209471212423" y1="33" y2="45" />
<line x1="556.5093683398452" x2="556.5093683398452" y1="33" y2="45" />
</g>
</g>
<g fill="hsl(60, 100%, 40%)">
<text y="77">bivariate.(sin x * cos y) * ((x ^ 2) + y).ad</text>
<text y="77" x="677.9053412236888" text-anchor="end">2.43 μs</text>
</g>
<g>
<title>2.43 μs ± 220 ns</title>
<rect y="83" rx="5" height="22" width="677.9053412236888" fill="hsl(60, 100%, 80%)" stroke="hsl(60, 100%, 55%)" />
<g stroke="hsl(60, 100%, 40%)"><line x1="616.5208974187608" x2="739.2897850286167" y1="94" y2="94" />
<line x1="616.5208974187608" x2="616.5208974187608" y1="88" y2="100" />
<line x1="739.2897850286167" x2="739.2897850286167" y1="88" y2="100" />
</g>
</g>
<g fill="hsl(120, 100%, 40%)">
<text y="132">bivariate.(sin x * cos y) * ((x ^ 2) + y).ad/double</text>
<text y="132" x="631.9514225668235" text-anchor="end">2.27 μs</text>
</g>
<g>
<title>2.27 μs ±  84 ns</title>
<rect y="138" rx="5" height="22" width="631.9514225668235" fill="hsl(120, 100%, 80%)" stroke="hsl(120, 100%, 55%)" />
<g stroke="hsl(120, 100%, 40%)"><line x1="608.4948624468262" x2="655.4079826868207" y1="149" y2="149" />
<line x1="608.4948624468262" x2="608.4948624468262" y1="143" y2="155" />
<line x1="655.4079826868207" x2="655.4079826868207" y1="143" y2="155" />
</g>
</g>
<g fill="hsl(180, 100%, 40%)">
<text y="187">bivariate.(sin x * cos y) * ((x ^ 2) + y).backprop</text>
<text y="187" x="877.2454274161497" text-anchor="end">3.15 μs</text>
</g>
<g>
<title>3.15 μs ± 225 ns</title>
<rect y="193" rx="5" height="22" width="877.2454274161497" fill="hsl(180, 100%, 80%)" stroke="hsl(180, 100%, 55%)" />
<g stroke="hsl(180, 100%, 40%)"><line x1="814.4908548322994" x2="940.0" y1="204" y2="204" />
<line x1="814.4908548322994" x2="814.4908548322994" y1="198" y2="210" />
<line x1="940.0" x2="940.0" y1="198" y2="210" />
</g>
</g>
<text fill="hsl(240, 100%, 40%)" y="242">bivariate.(sin x * cos y) * ((x ^ 2) + y).primops 782  ns</text>
<g>
<title>782  ns ±  42 ns</title>
<rect y="248" rx="5" height="22" width="217.76076835235236" fill="hsl(240, 100%, 80%)" stroke="hsl(240, 100%, 55%)" />
<g stroke="hsl(240, 100%, 40%)"><line x1="206.15562715373716" x2="229.36590955096756" y1="259" y2="259" />
<line x1="206.15562715373716" x2="206.15562715373716" y1="253" y2="265" />
<line x1="229.36590955096756" x2="229.36590955096756" y1="253" y2="265" />
</g>
</g>
<text fill="hsl(300, 100%, 40%)" y="297">bivariate.(sin x * cos y) * ((x ^ 2) + y).primops/double 490  ns</text>
<g>
<title>490  ns ±  31 ns</title>
<rect y="303" rx="5" height="22" width="136.38687558108484" fill="hsl(300, 100%, 80%)" stroke="hsl(300, 100%, 55%)" />
<g stroke="hsl(300, 100%, 40%)"><line x1="127.68859157630368" x2="145.085159585866" y1="314" y2="314" />
<line x1="127.68859157630368" x2="127.68859157630368" y1="308" y2="320" />
<line x1="145.085159585866" x2="145.085159585866" y1="308" y2="320" />
</g>
</g>
</g>
</svg>
