<svg xmlns="http://www.w3.org/2000/svg" height="337" width="960.0" font-size="16" font-family="sans-serif" stroke-width="2">
<g transform="translate(10.0 0)">
<g fill="hsl(0, 100%, 40%)">
<text y="22">bivariate.y * exp ((x * x) + y).transformers</text>
<text y="22" x="507.414871452089" text-anchor="end">1.38 μs</text>
</g>
<g>
<title>1.38 μs ±  89 ns</title>
<rect y="28" rx="5" height="22" width="507.414871452089" fill="hsl(0, 100%, 80%)" stroke="hsl(0, 100%, 55%)" />
<g stroke="hsl(0, 100%, 40%)"><line x1="474.82527629792656" x2="540.0044666062515" y1="39" y2="39" />
<line x1="474.82527629792656" x2="474.82527629792656" y1="33" y2="45" />
<line x1="540.0044666062515" x2="540.0044666062515" y1="33" y2="45" />
</g>
</g>
<g fill="hsl(60, 100%, 40%)">
<text y="77">bivariate.y * exp ((x * x) + y).ad</text>
<text y="77" x="729.6338360677281" text-anchor="end">1.98 μs</text>
</g>
<g>
<title>1.98 μs ± 194 ns</title>
<rect y="83" rx="5" height="22" width="729.6338360677281" fill="hsl(60, 100%, 80%)" stroke="hsl(60, 100%, 55%)" />
<g stroke="hsl(60, 100%, 40%)"><line x1="658.380999948763" x2="800.8866721866932" y1="94" y2="94" />
<line x1="658.380999948763" x2="658.380999948763" y1="88" y2="100" />
<line x1="800.8866721866932" x2="800.8866721866932" y1="88" y2="100" />
</g>
</g>
<g fill="hsl(120, 100%, 40%)">
<text y="132">bivariate.y * exp ((x * x) + y).ad/double</text>
<text y="132" x="700.9038737053393" text-anchor="end">1.91 μs</text>
</g>
<g>
<title>1.91 μs ± 178 ns</title>
<rect y="138" rx="5" height="22" width="700.9038737053393" fill="hsl(120, 100%, 80%)" stroke="hsl(120, 100%, 55%)" />
<g stroke="hsl(120, 100%, 40%)"><line x1="635.5982103849768" x2="766.2095370257017" y1="149" y2="149" />
<line x1="635.5982103849768" x2="635.5982103849768" y1="143" y2="155" />
<line x1="766.2095370257017" x2="766.2095370257017" y1="143" y2="155" />
</g>
</g>
<g fill="hsl(180, 100%, 40%)">
<text y="187">bivariate.y * exp ((x * x) + y).backprop</text>
<text y="187" x="899.6830508719855" text-anchor="end">2.45 μs</text>
</g>
<g>
<title>2.45 μs ± 110 ns</title>
<rect y="193" rx="5" height="22" width="899.6830508719855" fill="hsl(180, 100%, 80%)" stroke="hsl(180, 100%, 55%)" />
<g stroke="hsl(180, 100%, 40%)"><line x1="859.3661017439711" x2="940.0" y1="204" y2="204" />
<line x1="859.3661017439711" x2="859.3661017439711" y1="198" y2="210" />
<line x1="940.0" x2="940.0" y1="198" y2="210" />
</g>
</g>
<text fill="hsl(240, 100%, 40%)" y="242">bivariate.y * exp ((x * x) + y).primops 470  ns</text>
<g>
<title>470  ns ±  34 ns</title>
<rect y="248" rx="5" height="22" width="172.73345742311238" fill="hsl(240, 100%, 80%)" stroke="hsl(240, 100%, 55%)" />
<g stroke="hsl(240, 100%, 40%)"><line x1="160.11556854773892" x2="185.35134629848585" y1="259" y2="259" />
<line x1="160.11556854773892" x2="160.11556854773892" y1="253" y2="265" />
<line x1="185.35134629848585" x2="185.35134629848585" y1="253" y2="265" />
</g>
</g>
<text fill="hsl(300, 100%, 40%)" y="297">bivariate.y * exp ((x * x) + y).primops/double 286  ns</text>
<g>
<title>286  ns ±  13 ns</title>
<rect y="303" rx="5" height="22" width="105.28069413094978" fill="hsl(300, 100%, 80%)" stroke="hsl(300, 100%, 55%)" />
<g stroke="hsl(300, 100%, 40%)"><line x1="100.56663319971322" x2="109.99475506218634" y1="314" y2="314" />
<line x1="100.56663319971322" x2="100.56663319971322" y1="308" y2="320" />
<line x1="109.99475506218634" x2="109.99475506218634" y1="308" y2="320" />
</g>
</g>
</g>
</svg>
