<svg xmlns="http://www.w3.org/2000/svg" height="337" width="960.0" font-size="16" font-family="sans-serif" stroke-width="2">
<g transform="translate(10.0 0)">
<g fill="hsl(0, 100%, 40%)">
<text y="22">bivariate.y * exp ((x * x) + y).transformers</text>
<text y="22" x="539.1153245117806" text-anchor="end">1.41 μs</text>
</g>
<g>
<title>1.41 μs ± 116 ns</title>
<rect y="28" rx="5" height="22" width="539.1153245117806" fill="hsl(0, 100%, 80%)" stroke="hsl(0, 100%, 55%)" />
<g stroke="hsl(0, 100%, 40%)"><line x1="494.4876958260745" x2="583.7429531974867" y1="39" y2="39" />
<line x1="494.4876958260745" x2="494.4876958260745" y1="33" y2="45" />
<line x1="583.7429531974867" x2="583.7429531974867" y1="33" y2="45" />
</g>
</g>
<g fill="hsl(60, 100%, 40%)">
<text y="77">bivariate.y * exp ((x * x) + y).ad</text>
<text y="77" x="747.9014801547687" text-anchor="end">1.95 μs</text>
</g>
<g>
<title>1.95 μs ± 115 ns</title>
<rect y="83" rx="5" height="22" width="747.9014801547687" fill="hsl(60, 100%, 80%)" stroke="hsl(60, 100%, 55%)" />
<g stroke="hsl(60, 100%, 40%)"><line x1="703.8043843508786" x2="791.9985759586588" y1="94" y2="94" />
<line x1="703.8043843508786" x2="703.8043843508786" y1="88" y2="100" />
<line x1="791.9985759586588" x2="791.9985759586588" y1="88" y2="100" />
</g>
</g>
<g fill="hsl(120, 100%, 40%)">
<text y="132">bivariate.y * exp ((x * x) + y).ad/double</text>
<text y="132" x="724.6749499220284" text-anchor="end">1.89 μs</text>
</g>
<g>
<title>1.89 μs ± 106 ns</title>
<rect y="138" rx="5" height="22" width="724.6749499220284" fill="hsl(120, 100%, 80%)" stroke="hsl(120, 100%, 55%)" />
<g stroke="hsl(120, 100%, 40%)"><line x1="683.8591846588499" x2="765.4907151852069" y1="149" y2="149" />
<line x1="683.8591846588499" x2="683.8591846588499" y1="143" y2="155" />
<line x1="765.4907151852069" x2="765.4907151852069" y1="143" y2="155" />
</g>
</g>
<g fill="hsl(180, 100%, 40%)">
<text y="187">bivariate.y * exp ((x * x) + y).backprop</text>
<text y="187" x="901.0242331708654" text-anchor="end">2.35 μs</text>
</g>
<g>
<title>2.35 μs ± 102 ns</title>
<rect y="193" rx="5" height="22" width="901.0242331708654" fill="hsl(180, 100%, 80%)" stroke="hsl(180, 100%, 55%)" />
<g stroke="hsl(180, 100%, 40%)"><line x1="862.0484663417308" x2="940.0" y1="204" y2="204" />
<line x1="862.0484663417308" x2="862.0484663417308" y1="198" y2="210" />
<line x1="940.0" x2="940.0" y1="198" y2="210" />
</g>
</g>
<text fill="hsl(240, 100%, 40%)" y="242">bivariate.y * exp ((x * x) + y).primops 451  ns</text>
<g>
<title>451  ns ±  41 ns</title>
<rect y="248" rx="5" height="22" width="172.71605300761445" fill="hsl(240, 100%, 80%)" stroke="hsl(240, 100%, 55%)" />
<g stroke="hsl(240, 100%, 40%)"><line x1="156.99709971878036" x2="188.43500629644853" y1="259" y2="259" />
<line x1="156.99709971878036" x2="156.99709971878036" y1="253" y2="265" />
<line x1="188.43500629644853" x2="188.43500629644853" y1="253" y2="265" />
</g>
</g>
<text fill="hsl(300, 100%, 40%)" y="297">bivariate.y * exp ((x * x) + y).primops/double 295  ns</text>
<g>
<title>295  ns ±  28 ns</title>
<rect y="303" rx="5" height="22" width="113.17600367999687" fill="hsl(300, 100%, 80%)" stroke="hsl(300, 100%, 55%)" />
<g stroke="hsl(300, 100%, 40%)"><line x1="102.58987935613105" x2="123.76212800386268" y1="314" y2="314" />
<line x1="102.58987935613105" x2="102.58987935613105" y1="308" y2="320" />
<line x1="123.76212800386268" x2="123.76212800386268" y1="308" y2="320" />
</g>
</g>
</g>
</svg>
