<svg xmlns="http://www.w3.org/2000/svg" height="337" width="960.0" font-size="16" font-family="sans-serif" stroke-width="2">
<g transform="translate(10.0 0)">
<text fill="hsl(0, 100%, 40%)" y="22">bivariate.(((x * cos x) + y) ^ 2) * exp (x * sin ((x + (y * y)) + 1)).transformers 3.46 μs</text>
<g>
<title>3.46 μs ± 183 ns</title>
<rect y="28" rx="5" height="22" width="638.1091571055368" fill="hsl(0, 100%, 80%)" stroke="hsl(0, 100%, 55%)" />
<g stroke="hsl(0, 100%, 40%)"><line x1="604.3837669822383" x2="671.8345472288354" y1="39" y2="39" />
<line x1="604.3837669822383" x2="604.3837669822383" y1="33" y2="45" />
<line x1="671.8345472288354" x2="671.8345472288354" y1="33" y2="45" />
</g>
</g>
<text fill="hsl(60, 100%, 40%)" y="77">bivariate.(((x * cos x) + y) ^ 2) * exp (x * sin ((x + (y * y)) + 1)).ad 3.45 μs</text>
<g>
<title>3.45 μs ± 331 ns</title>
<rect y="83" rx="5" height="22" width="636.2408262054824" fill="hsl(60, 100%, 80%)" stroke="hsl(60, 100%, 55%)" />
<g stroke="hsl(60, 100%, 40%)"><line x1="575.2692354957275" x2="697.2124169152374" y1="94" y2="94" />
<line x1="575.2692354957275" x2="575.2692354957275" y1="88" y2="100" />
<line x1="697.2124169152374" x2="697.2124169152374" y1="88" y2="100" />
</g>
</g>
<text fill="hsl(120, 100%, 40%)" y="132">bivariate.(((x * cos x) + y) ^ 2) * exp (x * sin ((x + (y * y)) + 1)).ad/double 2.92 μs</text>
<g>
<title>2.92 μs ± 200 ns</title>
<rect y="138" rx="5" height="22" width="538.0361881388092" fill="hsl(120, 100%, 80%)" stroke="hsl(120, 100%, 55%)" />
<g stroke="hsl(120, 100%, 40%)"><line x1="501.1467397493105" x2="574.9256365283078" y1="149" y2="149" />
<line x1="501.1467397493105" x2="501.1467397493105" y1="143" y2="155" />
<line x1="574.9256365283078" x2="574.9256365283078" y1="143" y2="155" />
</g>
</g>
<g fill="hsl(180, 100%, 40%)">
<text y="187">bivariate.(((x * cos x) + y) ^ 2) * exp (x * sin ((x + (y * y)) + 1)).backprop</text>
<text y="187" x="901.2269291746314" text-anchor="end">4.89 μs</text>
</g>
<g>
<title>4.89 μs ± 210 ns</title>
<rect y="193" rx="5" height="22" width="901.2269291746314" fill="hsl(180, 100%, 80%)" stroke="hsl(180, 100%, 55%)" />
<g stroke="hsl(180, 100%, 40%)"><line x1="862.4538583492629" x2="940.0" y1="204" y2="204" />
<line x1="862.4538583492629" x2="862.4538583492629" y1="198" y2="210" />
<line x1="940.0" x2="940.0" y1="198" y2="210" />
</g>
</g>
<text fill="hsl(240, 100%, 40%)" y="242">bivariate.(((x * cos x) + y) ^ 2) * exp (x * sin ((x + (y * y)) + 1)).primops 1.61 μs</text>
<g>
<title>1.61 μs ±  84 ns</title>
<rect y="248" rx="5" height="22" width="297.1480717318458" fill="hsl(240, 100%, 80%)" stroke="hsl(240, 100%, 55%)" />
<g stroke="hsl(240, 100%, 40%)"><line x1="281.7559434036779" x2="312.54020006001366" y1="259" y2="259" />
<line x1="281.7559434036779" x2="281.7559434036779" y1="253" y2="265" />
<line x1="312.54020006001366" x2="312.54020006001366" y1="253" y2="265" />
</g>
</g>
<text fill="hsl(300, 100%, 40%)" y="297">bivariate.(((x * cos x) + y) ^ 2) * exp (x * sin ((x + (y * y)) + 1)).primops/double 1.08 μs</text>
<g>
<title>1.08 μs ± 100 ns</title>
<rect y="303" rx="5" height="22" width="198.65786883970327" fill="hsl(300, 100%, 80%)" stroke="hsl(300, 100%, 55%)" />
<g stroke="hsl(300, 100%, 40%)"><line x1="180.2339632419075" x2="217.08177443749904" y1="314" y2="314" />
<line x1="180.2339632419075" x2="180.2339632419075" y1="308" y2="320" />
<line x1="217.08177443749904" x2="217.08177443749904" y1="308" y2="320" />
</g>
</g>
</g>
</svg>
