<svg xmlns="http://www.w3.org/2000/svg" height="337" width="960.0" font-size="16" font-family="sans-serif" stroke-width="2">
<g transform="translate(10.0 0)">
<text fill="hsl(0, 100%, 40%)" y="22">bivariate.(((x * cos x) + y) ^ 2) * exp (x * sin ((x + (y * y)) + 1)).transformers 3.41 μs</text>
<g>
<title>3.41 μs ± 188 ns</title>
<rect y="28" rx="5" height="22" width="641.6227443609023" fill="hsl(0, 100%, 80%)" stroke="hsl(0, 100%, 55%)" />
<g stroke="hsl(0, 100%, 40%)"><line x1="606.20507518797" x2="677.0404135338346" y1="39" y2="39" />
<line x1="606.20507518797" x2="606.20507518797" y1="33" y2="45" />
<line x1="677.0404135338346" x2="677.0404135338346" y1="33" y2="45" />
</g>
</g>
<g fill="hsl(60, 100%, 40%)">
<text y="77">bivariate.(((x * cos x) + y) ^ 2) * exp (x * sin ((x + (y * y)) + 1)).ad</text>
<text y="77" x="645.8511278195489" text-anchor="end">3.44 μs</text>
</g>
<g>
<title>3.44 μs ± 220 ns</title>
<rect y="83" rx="5" height="22" width="645.8511278195489" fill="hsl(60, 100%, 80%)" stroke="hsl(60, 100%, 55%)" />
<g stroke="hsl(60, 100%, 40%)"><line x1="604.487969924812" x2="687.2142857142858" y1="94" y2="94" />
<line x1="604.487969924812" x2="604.487969924812" y1="88" y2="100" />
<line x1="687.2142857142858" x2="687.2142857142858" y1="88" y2="100" />
</g>
</g>
<text fill="hsl(120, 100%, 40%)" y="132">bivariate.(((x * cos x) + y) ^ 2) * exp (x * sin ((x + (y * y)) + 1)).ad/double 2.87 μs</text>
<g>
<title>2.87 μs ± 231 ns</title>
<rect y="138" rx="5" height="22" width="539.9772556390977" fill="hsl(120, 100%, 80%)" stroke="hsl(120, 100%, 55%)" />
<g stroke="hsl(120, 100%, 40%)"><line x1="496.6193609022556" x2="583.3351503759399" y1="149" y2="149" />
<line x1="496.6193609022556" x2="496.6193609022556" y1="143" y2="155" />
<line x1="583.3351503759399" x2="583.3351503759399" y1="143" y2="155" />
</g>
</g>
<g fill="hsl(180, 100%, 40%)">
<text y="187">bivariate.(((x * cos x) + y) ^ 2) * exp (x * sin ((x + (y * y)) + 1)).backprop</text>
<text y="187" x="905.6466165413534" text-anchor="end">4.82 μs</text>
</g>
<g>
<title>4.82 μs ± 183 ns</title>
<rect y="193" rx="5" height="22" width="905.6466165413534" fill="hsl(180, 100%, 80%)" stroke="hsl(180, 100%, 55%)" />
<g stroke="hsl(180, 100%, 40%)"><line x1="871.2932330827068" x2="940.0" y1="204" y2="204" />
<line x1="871.2932330827068" x2="871.2932330827068" y1="198" y2="210" />
<line x1="940.0" x2="940.0" y1="198" y2="210" />
</g>
</g>
<text fill="hsl(240, 100%, 40%)" y="242">bivariate.(((x * cos x) + y) ^ 2) * exp (x * sin ((x + (y * y)) + 1)).primops 1.61 μs</text>
<g>
<title>1.61 μs ±  92 ns</title>
<rect y="248" rx="5" height="22" width="303.21748120300754" fill="hsl(240, 100%, 80%)" stroke="hsl(240, 100%, 55%)" />
<g stroke="hsl(240, 100%, 40%)"><line x1="285.97349624060155" x2="320.4614661654135" y1="259" y2="259" />
<line x1="285.97349624060155" x2="285.97349624060155" y1="253" y2="265" />
<line x1="320.4614661654135" x2="320.4614661654135" y1="253" y2="265" />
</g>
</g>
<text fill="hsl(300, 100%, 40%)" y="297">bivariate.(((x * cos x) + y) ^ 2) * exp (x * sin ((x + (y * y)) + 1)).primops/double 1.04 μs</text>
<g>
<title>1.04 μs ±  87 ns</title>
<rect y="303" rx="5" height="22" width="196.20507518796992" fill="hsl(300, 100%, 80%)" stroke="hsl(300, 100%, 55%)" />
<g stroke="hsl(300, 100%, 40%)"><line x1="179.87913533834586" x2="212.531015037594" y1="314" y2="314" />
<line x1="179.87913533834586" x2="179.87913533834586" y1="308" y2="320" />
<line x1="212.531015037594" x2="212.531015037594" y1="308" y2="320" />
</g>
</g>
</g>
</svg>
