<svg xmlns="http://www.w3.org/2000/svg" height="337" width="960.0" font-size="16" font-family="sans-serif" stroke-width="2">
<g transform="translate(10.0 0)">
<text fill="hsl(0, 100%, 40%)" y="22">bivariate.((tanh (exp y * cosh x) + (x ^ 2)) ^ 3) - ((((x * cos x) + y) ^ 2) * exp (x * sin ((x + (y * y)) + 1))).transformers 8.59 μs</text>
<g>
<title>8.59 μs ± 457 ns</title>
<rect y="28" rx="5" height="22" width="892.5209737476749" fill="hsl(0, 100%, 80%)" stroke="hsl(0, 100%, 55%)" />
<g stroke="hsl(0, 100%, 40%)"><line x1="845.0419474953499" x2="940.0" y1="39" y2="39" />
<line x1="845.0419474953499" x2="845.0419474953499" y1="33" y2="45" />
<line x1="940.0" x2="940.0" y1="33" y2="45" />
</g>
</g>
<text fill="hsl(60, 100%, 40%)" y="77">bivariate.((tanh (exp y * cosh x) + (x ^ 2)) ^ 3) - ((((x * cos x) + y) ^ 2) * exp (x * sin ((x + (y * y)) + 1))).ad 5.29 μs</text>
<g>
<title>5.29 μs ± 414 ns</title>
<rect y="83" rx="5" height="22" width="549.8474728954645" fill="hsl(60, 100%, 80%)" stroke="hsl(60, 100%, 55%)" />
<g stroke="hsl(60, 100%, 40%)"><line x1="506.8549810109125" x2="592.8399647800165" y1="94" y2="94" />
<line x1="506.8549810109125" x2="506.8549810109125" y1="88" y2="100" />
<line x1="592.8399647800165" x2="592.8399647800165" y1="88" y2="100" />
</g>
</g>
<text fill="hsl(120, 100%, 40%)" y="132">bivariate.((tanh (exp y * cosh x) + (x ^ 2)) ^ 3) - ((((x * cos x) + y) ^ 2) * exp (x * sin ((x + (y * y)) + 1))).ad/double 4.22 μs</text>
<g>
<title>4.22 μs ± 342 ns</title>
<rect y="138" rx="5" height="22" width="438.08527585450895" fill="hsl(120, 100%, 80%)" stroke="hsl(120, 100%, 55%)" />
<g stroke="hsl(120, 100%, 40%)"><line x1="402.5995645239998" x2="473.5709871850181" y1="149" y2="149" />
<line x1="402.5995645239998" x2="402.5995645239998" y1="143" y2="155" />
<line x1="473.5709871850181" x2="473.5709871850181" y1="143" y2="155" />
</g>
</g>
<text fill="hsl(180, 100%, 40%)" y="187">bivariate.((tanh (exp y * cosh x) + (x ^ 2)) ^ 3) - ((((x * cos x) + y) ^ 2) * exp (x * sin ((x + (y * y)) + 1))).backprop 8.12 μs</text>
<g>
<title>8.12 μs ± 766 ns</title>
<rect y="193" rx="5" height="22" width="843.0176471212261" fill="hsl(180, 100%, 80%)" stroke="hsl(180, 100%, 55%)" />
<g stroke="hsl(180, 100%, 40%)"><line x1="763.4493880704683" x2="922.5859061719839" y1="204" y2="204" />
<line x1="763.4493880704683" x2="763.4493880704683" y1="198" y2="210" />
<line x1="922.5859061719839" x2="922.5859061719839" y1="198" y2="210" />
</g>
</g>
<text fill="hsl(240, 100%, 40%)" y="242">bivariate.((tanh (exp y * cosh x) + (x ^ 2)) ^ 3) - ((((x * cos x) + y) ^ 2) * exp (x * sin ((x + (y * y)) + 1))).primops 3.97 μs</text>
<g>
<title>3.97 μs ± 363 ns</title>
<rect y="248" rx="5" height="22" width="411.93390772081443" fill="hsl(240, 100%, 80%)" stroke="hsl(240, 100%, 55%)" />
<g stroke="hsl(240, 100%, 40%)"><line x1="374.1868550959355" x2="449.68096034569334" y1="259" y2="259" />
<line x1="374.1868550959355" x2="374.1868550959355" y1="253" y2="265" />
<line x1="449.68096034569334" x2="449.68096034569334" y1="253" y2="265" />
</g>
</g>
<text fill="hsl(300, 100%, 40%)" y="297">bivariate.((tanh (exp y * cosh x) + (x ^ 2)) ^ 3) - ((((x * cos x) + y) ^ 2) * exp (x * sin ((x + (y * y)) + 1))).primops/double 2.69 μs</text>
<g>
<title>2.69 μs ± 184 ns</title>
<rect y="303" rx="5" height="22" width="279.0369469472478" fill="hsl(300, 100%, 80%)" stroke="hsl(300, 100%, 55%)" />
<g stroke="hsl(300, 100%, 40%)"><line x1="259.8985414294504" x2="298.17535246504525" y1="314" y2="314" />
<line x1="259.8985414294504" x2="259.8985414294504" y1="308" y2="320" />
<line x1="298.17535246504525" x2="298.17535246504525" y1="308" y2="320" />
</g>
</g>
</g>
</svg>
