<svg xmlns="http://www.w3.org/2000/svg" height="337" width="960.0" font-size="16" font-family="sans-serif" stroke-width="2">
<g transform="translate(10.0 0)">
<text fill="hsl(0, 100%, 40%)" y="22">bivariate.((tanh (exp y * cosh x) + (x ^ 2)) ^ 3) - ((((x * cos x) + y) ^ 2) * exp (x * sin ((x + (y * y)) + 1))).transformers 8.61 μs</text>
<g>
<title>8.61 μs ± 354 ns</title>
<rect y="28" rx="5" height="22" width="902.9272136050737" fill="hsl(0, 100%, 80%)" stroke="hsl(0, 100%, 55%)" />
<g stroke="hsl(0, 100%, 40%)"><line x1="865.8544272101474" x2="940.0" y1="39" y2="39" />
<line x1="865.8544272101474" x2="865.8544272101474" y1="33" y2="45" />
<line x1="940.0" x2="940.0" y1="33" y2="45" />
</g>
</g>
<text fill="hsl(60, 100%, 40%)" y="77">bivariate.((tanh (exp y * cosh x) + (x ^ 2)) ^ 3) - ((((x * cos x) + y) ^ 2) * exp (x * sin ((x + (y * y)) + 1))).ad 5.33 μs</text>
<g>
<title>5.33 μs ± 406 ns</title>
<rect y="83" rx="5" height="22" width="558.6052176101089" fill="hsl(60, 100%, 80%)" stroke="hsl(60, 100%, 55%)" />
<g stroke="hsl(60, 100%, 40%)"><line x1="516.0803411752817" x2="601.1300940449361" y1="94" y2="94" />
<line x1="516.0803411752817" x2="516.0803411752817" y1="88" y2="100" />
<line x1="601.1300940449361" x2="601.1300940449361" y1="88" y2="100" />
</g>
</g>
<text fill="hsl(120, 100%, 40%)" y="132">bivariate.((tanh (exp y * cosh x) + (x ^ 2)) ^ 3) - ((((x * cos x) + y) ^ 2) * exp (x * sin ((x + (y * y)) + 1))).ad/double 4.25 μs</text>
<g>
<title>4.25 μs ± 202 ns</title>
<rect y="138" rx="5" height="22" width="445.4559491859767" fill="hsl(120, 100%, 80%)" stroke="hsl(120, 100%, 55%)" />
<g stroke="hsl(120, 100%, 40%)"><line x1="424.2827330874038" x2="466.6291652845496" y1="149" y2="149" />
<line x1="424.2827330874038" x2="424.2827330874038" y1="143" y2="155" />
<line x1="466.6291652845496" x2="466.6291652845496" y1="143" y2="155" />
</g>
</g>
<text fill="hsl(180, 100%, 40%)" y="187">bivariate.((tanh (exp y * cosh x) + (x ^ 2)) ^ 3) - ((((x * cos x) + y) ^ 2) * exp (x * sin ((x + (y * y)) + 1))).backprop 8.19 μs</text>
<g>
<title>8.19 μs ± 760 ns</title>
<rect y="193" rx="5" height="22" width="858.9684926376193" fill="hsl(180, 100%, 80%)" stroke="hsl(180, 100%, 55%)" />
<g stroke="hsl(180, 100%, 40%)"><line x1="779.3328763331064" x2="938.6041089421323" y1="204" y2="204" />
<line x1="779.3328763331064" x2="779.3328763331064" y1="198" y2="210" />
<line x1="938.6041089421323" x2="938.6041089421323" y1="198" y2="210" />
</g>
</g>
<text fill="hsl(240, 100%, 40%)" y="242">bivariate.((tanh (exp y * cosh x) + (x ^ 2)) ^ 3) - ((((x * cos x) + y) ^ 2) * exp (x * sin ((x + (y * y)) + 1))).primops 3.98 μs</text>
<g>
<title>3.98 μs ± 334 ns</title>
<rect y="248" rx="5" height="22" width="416.80652762289765" fill="hsl(240, 100%, 80%)" stroke="hsl(240, 100%, 55%)" />
<g stroke="hsl(240, 100%, 40%)"><line x1="381.81027857904013" x2="451.80277666675516" y1="259" y2="259" />
<line x1="381.81027857904013" x2="381.81027857904013" y1="253" y2="265" />
<line x1="451.80277666675516" x2="451.80277666675516" y1="253" y2="265" />
</g>
</g>
<text fill="hsl(300, 100%, 40%)" y="297">bivariate.((tanh (exp y * cosh x) + (x ^ 2)) ^ 3) - ((((x * cos x) + y) ^ 2) * exp (x * sin ((x + (y * y)) + 1))).primops/double 2.65 μs</text>
<g>
<title>2.65 μs ± 194 ns</title>
<rect y="303" rx="5" height="22" width="277.4778539667895" fill="hsl(300, 100%, 80%)" stroke="hsl(300, 100%, 55%)" />
<g stroke="hsl(300, 100%, 40%)"><line x1="257.1220005456342" x2="297.8337073879448" y1="314" y2="314" />
<line x1="257.1220005456342" x2="257.1220005456342" y1="308" y2="320" />
<line x1="297.8337073879448" x2="297.8337073879448" y1="308" y2="320" />
</g>
</g>
</g>
</svg>
