<svg xmlns="http://www.w3.org/2000/svg" height="3307" width="960.0" font-size="16" font-family="sans-serif" stroke-width="2">
<g transform="translate(10.0 0)">
<text fill="hsl(0, 100%, 40%)" y="22">univariate.id.transformers 100  ns</text>
<g>
<title>100  ns ± 6.8 ns</title>
<rect y="28" rx="5" height="22" width="2.454609687155481" fill="hsl(0, 100%, 80%)" stroke="hsl(0, 100%, 55%)" />
<g stroke="hsl(0, 100%, 40%)"><line x1="2.287106468337411" x2="2.622112905973551" y1="39" y2="39" />
<line x1="2.287106468337411" x2="2.287106468337411" y1="33" y2="45" />
<line x1="2.622112905973551" x2="2.622112905973551" y1="33" y2="45" />
</g>
</g>
<text fill="hsl(6, 100%, 40%)" y="77">univariate.id.ad 33.3 ns</text>
<g>
<title>33.3 ns ± 1.9 ns</title>
<rect y="83" rx="5" height="22" width="0.8149327649975838" fill="hsl(6, 100%, 80%)" stroke="hsl(6, 100%, 55%)" />
<g stroke="hsl(6, 100%, 40%)"><line x1="0.769374629818027" x2="0.8604909001771407" y1="94" y2="94" />
<line x1="0.769374629818027" x2="0.769374629818027" y1="88" y2="100" />
<line x1="0.8604909001771407" x2="0.8604909001771407" y1="88" y2="100" />
</g>
</g>
<text fill="hsl(12, 100%, 40%)" y="132">univariate.id.ad/double 33.8 ns</text>
<g>
<title>33.8 ns ± 2.2 ns</title>
<rect y="138" rx="5" height="22" width="0.8279493750488858" fill="hsl(12, 100%, 80%)" stroke="hsl(12, 100%, 55%)" />
<g stroke="hsl(12, 100%, 40%)"><line x1="0.773142595885509" x2="0.8827561542122625" y1="149" y2="149" />
<line x1="0.773142595885509" x2="0.773142595885509" y1="143" y2="155" />
<line x1="0.8827561542122625" x2="0.8827561542122625" y1="143" y2="155" />
</g>
</g>
<text fill="hsl(18, 100%, 40%)" y="187">univariate.id.primops 71.3 ns</text>
<g>
<title>71.3 ns ± 3.6 ns</title>
<rect y="193" rx="5" height="22" width="1.7434427928864153" fill="hsl(18, 100%, 80%)" stroke="hsl(18, 100%, 55%)" />
<g stroke="hsl(18, 100%, 40%)"><line x1="1.6557519462250125" x2="1.8311336395478182" y1="204" y2="204" />
<line x1="1.6557519462250125" x2="1.6557519462250125" y1="198" y2="210" />
<line x1="1.8311336395478182" x2="1.8311336395478182" y1="198" y2="210" />
</g>
</g>
<text fill="hsl(24, 100%, 40%)" y="242">univariate.(x + 1) * (x + 1).transformers 612  ns</text>
<g>
<title>612  ns ±  54 ns</title>
<rect y="248" rx="5" height="22" width="14.96371875032943" fill="hsl(24, 100%, 80%)" stroke="hsl(24, 100%, 55%)" />
<g stroke="hsl(24, 100%, 40%)"><line x1="13.634996897987318" x2="16.292440602671544" y1="259" y2="259" />
<line x1="13.634996897987318" x2="13.634996897987318" y1="253" y2="265" />
<line x1="16.292440602671544" x2="16.292440602671544" y1="253" y2="265" />
</g>
</g>
<text fill="hsl(30, 100%, 40%)" y="297">univariate.(x + 1) * (x + 1).ad 290  ns</text>
<g>
<title>290  ns ±  27 ns</title>
<rect y="303" rx="5" height="22" width="7.093073785474512" fill="hsl(30, 100%, 80%)" stroke="hsl(30, 100%, 55%)" />
<g stroke="hsl(30, 100%, 40%)"><line x1="6.423648125693267" x2="7.762499445255756" y1="314" y2="314" />
<line x1="6.423648125693267" x2="6.423648125693267" y1="308" y2="320" />
<line x1="7.762499445255756" x2="7.762499445255756" y1="308" y2="320" />
</g>
</g>
<text fill="hsl(36, 100%, 40%)" y="352">univariate.(x + 1) * (x + 1).ad/double 37.7 ns</text>
<g>
<title>37.7 ns ± 3.6 ns</title>
<rect y="358" rx="5" height="22" width="0.9231272192209998" fill="hsl(36, 100%, 80%)" stroke="hsl(36, 100%, 55%)" />
<g stroke="hsl(36, 100%, 40%)"><line x1="0.8338215299592476" x2="1.0124329084827521" y1="369" y2="369" />
<line x1="0.8338215299592476" x2="0.8338215299592476" y1="363" y2="375" />
<line x1="1.0124329084827521" x2="1.0124329084827521" y1="363" y2="375" />
</g>
</g>
<text fill="hsl(42, 100%, 40%)" y="407">univariate.(x + 1) * (x + 1).primops 491  ns</text>
<g>
<title>491  ns ±  27 ns</title>
<rect y="413" rx="5" height="22" width="12.018417118476842" fill="hsl(42, 100%, 80%)" stroke="hsl(42, 100%, 55%)" />
<g stroke="hsl(42, 100%, 40%)"><line x1="11.360588964643563" x2="12.67624527231012" y1="424" y2="424" />
<line x1="11.360588964643563" x2="11.360588964643563" y1="418" y2="430" />
<line x1="12.67624527231012" x2="12.67624527231012" y1="418" y2="430" />
</g>
</g>
<text fill="hsl(48, 100%, 40%)" y="462">univariate.x * exp ((x * x) + 1).transformers 1.32 μs</text>
<g>
<title>1.32 μs ± 101 ns</title>
<rect y="468" rx="5" height="22" width="32.38591302313033" fill="hsl(48, 100%, 80%)" stroke="hsl(48, 100%, 55%)" />
<g stroke="hsl(48, 100%, 40%)"><line x1="29.919510091529872" x2="34.852315954730784" y1="479" y2="479" />
<line x1="29.919510091529872" x2="29.919510091529872" y1="473" y2="485" />
<line x1="34.852315954730784" x2="34.852315954730784" y1="473" y2="485" />
</g>
</g>
<text fill="hsl(54, 100%, 40%)" y="517">univariate.x * exp ((x * x) + 1).ad 627  ns</text>
<g>
<title>627  ns ±  61 ns</title>
<rect y="523" rx="5" height="22" width="15.34783108340347" fill="hsl(54, 100%, 80%)" stroke="hsl(54, 100%, 55%)" />
<g stroke="hsl(54, 100%, 40%)"><line x1="13.860365309984576" x2="16.835296856822364" y1="534" y2="534" />
<line x1="13.860365309984576" x2="13.860365309984576" y1="528" y2="540" />
<line x1="16.835296856822364" x2="16.835296856822364" y1="528" y2="540" />
</g>
</g>
<text fill="hsl(60, 100%, 40%)" y="572">univariate.x * exp ((x * x) + 1).ad/double 50.6 ns</text>
<g>
<title>50.6 ns ± 3.8 ns</title>
<rect y="578" rx="5" height="22" width="1.238706611028693" fill="hsl(60, 100%, 80%)" stroke="hsl(60, 100%, 55%)" />
<g stroke="hsl(60, 100%, 40%)"><line x1="1.1452414787054346" x2="1.3321717433519515" y1="589" y2="589" />
<line x1="1.1452414787054346" x2="1.1452414787054346" y1="583" y2="595" />
<line x1="1.3321717433519515" x2="1.3321717433519515" y1="583" y2="595" />
</g>
</g>
<text fill="hsl(66, 100%, 40%)" y="627">univariate.x * exp ((x * x) + 1).primops 660  ns</text>
<g>
<title>660  ns ±  59 ns</title>
<rect y="633" rx="5" height="22" width="16.152854586989818" fill="hsl(66, 100%, 80%)" stroke="hsl(66, 100%, 55%)" />
<g stroke="hsl(66, 100%, 40%)"><line x1="14.70492798996736" x2="17.600781184012277" y1="644" y2="644" />
<line x1="14.70492798996736" x2="14.70492798996736" y1="638" y2="650" />
<line x1="17.600781184012277" x2="17.600781184012277" y1="638" y2="650" />
</g>
</g>
<text fill="hsl(72, 100%, 40%)" y="682">bivariate.x * y.transformers 1.17 μs</text>
<g>
<title>1.17 μs ±  70 ns</title>
<rect y="688" rx="5" height="22" width="28.568082573534358" fill="hsl(72, 100%, 80%)" stroke="hsl(72, 100%, 55%)" />
<g stroke="hsl(72, 100%, 40%)"><line x1="26.85659409028516" x2="30.279571056783556" y1="699" y2="699" />
<line x1="26.85659409028516" x2="26.85659409028516" y1="693" y2="705" />
<line x1="30.279571056783556" x2="30.279571056783556" y1="693" y2="705" />
</g>
</g>
<text fill="hsl(78, 100%, 40%)" y="737">bivariate.x * y.ad 2.16 μs</text>
<g>
<title>2.16 μs ± 125 ns</title>
<rect y="743" rx="5" height="22" width="52.90779766730208" fill="hsl(78, 100%, 80%)" stroke="hsl(78, 100%, 55%)" />
<g stroke="hsl(78, 100%, 40%)"><line x1="49.8592195109635" x2="55.956375823640656" y1="754" y2="754" />
<line x1="49.8592195109635" x2="49.8592195109635" y1="748" y2="760" />
<line x1="55.956375823640656" x2="55.956375823640656" y1="748" y2="760" />
</g>
</g>
<text fill="hsl(84, 100%, 40%)" y="792">bivariate.x * y.ad/double 2.30 μs</text>
<g>
<title>2.30 μs ±  75 ns</title>
<rect y="798" rx="5" height="22" width="56.303297842282404" fill="hsl(84, 100%, 80%)" stroke="hsl(84, 100%, 55%)" />
<g stroke="hsl(84, 100%, 40%)"><line x1="54.46736860955779" x2="58.13922707500702" y1="809" y2="809" />
<line x1="54.46736860955779" x2="54.46736860955779" y1="803" y2="815" />
<line x1="58.13922707500702" x2="58.13922707500702" y1="803" y2="815" />
</g>
</g>
<text fill="hsl(90, 100%, 40%)" y="847">bivariate.x * y.primops 256  ns</text>
<g>
<title>256  ns ±  15 ns</title>
<rect y="853" rx="5" height="22" width="6.266665851089596" fill="hsl(90, 100%, 80%)" stroke="hsl(90, 100%, 55%)" />
<g stroke="hsl(90, 100%, 40%)"><line x1="5.89975403844049" x2="6.633577663738702" y1="864" y2="864" />
<line x1="5.89975403844049" x2="5.89975403844049" y1="858" y2="870" />
<line x1="6.633577663738702" x2="6.633577663738702" y1="858" y2="870" />
</g>
</g>
<text fill="hsl(96, 100%, 40%)" y="902">bivariate.(sin x * cos y) * ((x ^ 2) + y).transformers 3.07 μs</text>
<g>
<title>3.07 μs ± 258 ns</title>
<rect y="908" rx="5" height="22" width="75.01274187337098" fill="hsl(96, 100%, 80%)" stroke="hsl(96, 100%, 55%)" />
<g stroke="hsl(96, 100%, 40%)"><line x1="68.71123456981324" x2="81.31424917692873" y1="919" y2="919" />
<line x1="68.71123456981324" x2="68.71123456981324" y1="913" y2="925" />
<line x1="81.31424917692873" x2="81.31424917692873" y1="913" y2="925" />
</g>
</g>
<text fill="hsl(102, 100%, 40%)" y="957">bivariate.(sin x * cos y) * ((x ^ 2) + y).ad 3.84 μs</text>
<g>
<title>3.84 μs ± 235 ns</title>
<rect y="963" rx="5" height="22" width="94.01160973960403" fill="hsl(102, 100%, 80%)" stroke="hsl(102, 100%, 55%)" />
<g stroke="hsl(102, 100%, 40%)"><line x1="88.26991453750077" x2="99.75330494170728" y1="974" y2="974" />
<line x1="88.26991453750077" x2="88.26991453750077" y1="968" y2="980" />
<line x1="99.75330494170728" x2="99.75330494170728" y1="968" y2="980" />
</g>
</g>
<text fill="hsl(108, 100%, 40%)" y="1012">bivariate.(sin x * cos y) * ((x ^ 2) + y).ad/double 3.48 μs</text>
<g>
<title>3.48 μs ± 343 ns</title>
<rect y="1018" rx="5" height="22" width="85.06853801693217" fill="hsl(108, 100%, 80%)" stroke="hsl(108, 100%, 55%)" />
<g stroke="hsl(108, 100%, 40%)"><line x1="76.68549860152393" x2="93.4515774323404" y1="1029" y2="1029" />
<line x1="76.68549860152393" x2="76.68549860152393" y1="1023" y2="1035" />
<line x1="93.4515774323404" x2="93.4515774323404" y1="1023" y2="1035" />
</g>
</g>
<text fill="hsl(114, 100%, 40%)" y="1067">bivariate.(sin x * cos y) * ((x ^ 2) + y).primops 1.20 μs</text>
<g>
<title>1.20 μs ± 119 ns</title>
<rect y="1073" rx="5" height="22" width="29.475403909121635" fill="hsl(114, 100%, 80%)" stroke="hsl(114, 100%, 55%)" />
<g stroke="hsl(114, 100%, 40%)"><line x1="26.56027047312103" x2="32.39053734512224" y1="1084" y2="1084" />
<line x1="26.56027047312103" x2="26.56027047312103" y1="1078" y2="1090" />
<line x1="32.39053734512224" x2="32.39053734512224" y1="1078" y2="1090" />
</g>
</g>
<text fill="hsl(120, 100%, 40%)" y="1122">bivariate.y * exp ((x * x) + y).transformers 2.21 μs</text>
<g>
<title>2.21 μs ± 130 ns</title>
<rect y="1128" rx="5" height="22" width="54.13542058593747" fill="hsl(120, 100%, 80%)" stroke="hsl(120, 100%, 55%)" />
<g stroke="hsl(120, 100%, 40%)"><line x1="50.944932019265146" x2="57.32590915260979" y1="1139" y2="1139" />
<line x1="50.944932019265146" x2="50.944932019265146" y1="1133" y2="1145" />
<line x1="57.32590915260979" x2="57.32590915260979" y1="1133" y2="1145" />
</g>
</g>
<text fill="hsl(126, 100%, 40%)" y="1177">bivariate.y * exp ((x * x) + y).ad 3.12 μs</text>
<g>
<title>3.12 μs ± 231 ns</title>
<rect y="1183" rx="5" height="22" width="76.37001707896474" fill="hsl(126, 100%, 80%)" stroke="hsl(126, 100%, 55%)" />
<g stroke="hsl(126, 100%, 40%)"><line x1="70.72702301397982" x2="82.01301114394965" y1="1194" y2="1194" />
<line x1="70.72702301397982" x2="70.72702301397982" y1="1188" y2="1200" />
<line x1="82.01301114394965" x2="82.01301114394965" y1="1188" y2="1200" />
</g>
</g>
<text fill="hsl(132, 100%, 40%)" y="1232">bivariate.y * exp ((x * x) + y).ad/double 2.88 μs</text>
<g>
<title>2.88 μs ± 269 ns</title>
<rect y="1238" rx="5" height="22" width="70.38841988146108" fill="hsl(132, 100%, 80%)" stroke="hsl(132, 100%, 55%)" />
<g stroke="hsl(132, 100%, 40%)"><line x1="63.79658345221019" x2="76.98025631071195" y1="1249" y2="1249" />
<line x1="63.79658345221019" x2="63.79658345221019" y1="1243" y2="1255" />
<line x1="76.98025631071195" x2="76.98025631071195" y1="1243" y2="1255" />
</g>
</g>
<text fill="hsl(138, 100%, 40%)" y="1287">bivariate.y * exp ((x * x) + y).primops 770  ns</text>
<g>
<title>770  ns ±  60 ns</title>
<rect y="1293" rx="5" height="22" width="18.851085300988935" fill="hsl(138, 100%, 80%)" stroke="hsl(138, 100%, 55%)" />
<g stroke="hsl(138, 100%, 40%)"><line x1="17.384563546750332" x2="20.317607055227537" y1="1304" y2="1304" />
<line x1="17.384563546750332" x2="17.384563546750332" y1="1298" y2="1310" />
<line x1="20.317607055227537" x2="20.317607055227537" y1="1298" y2="1310" />
</g>
</g>
<text fill="hsl(144, 100%, 40%)" y="1342">bivariate.(((x * cos x) + y) ^ 2) * exp (x * sin ((x + (y * y)) + 1)).transformers 5.95 μs</text>
<g>
<title>5.95 μs ± 431 ns</title>
<rect y="1348" rx="5" height="22" width="145.477157226297" fill="hsl(144, 100%, 80%)" stroke="hsl(144, 100%, 55%)" />
<g stroke="hsl(144, 100%, 40%)"><line x1="134.9214204940549" x2="156.03289395853912" y1="1359" y2="1359" />
<line x1="134.9214204940549" x2="134.9214204940549" y1="1353" y2="1365" />
<line x1="156.03289395853912" x2="156.03289395853912" y1="1353" y2="1365" />
</g>
</g>
<text fill="hsl(150, 100%, 40%)" y="1397">bivariate.(((x * cos x) + y) ^ 2) * exp (x * sin ((x + (y * y)) + 1)).ad 5.82 μs</text>
<g>
<title>5.82 μs ± 437 ns</title>
<rect y="1403" rx="5" height="22" width="142.34101055985766" fill="hsl(150, 100%, 80%)" stroke="hsl(150, 100%, 55%)" />
<g stroke="hsl(150, 100%, 40%)"><line x1="131.65270993051413" x2="153.0293111892012" y1="1414" y2="1414" />
<line x1="131.65270993051413" x2="131.65270993051413" y1="1408" y2="1420" />
<line x1="153.0293111892012" x2="153.0293111892012" y1="1408" y2="1420" />
</g>
</g>
<text fill="hsl(156, 100%, 40%)" y="1452">bivariate.(((x * cos x) + y) ^ 2) * exp (x * sin ((x + (y * y)) + 1)).ad/double 4.95 μs</text>
<g>
<title>4.95 μs ± 449 ns</title>
<rect y="1458" rx="5" height="22" width="121.1335028952769" fill="hsl(156, 100%, 80%)" stroke="hsl(156, 100%, 55%)" />
<g stroke="hsl(156, 100%, 40%)"><line x1="110.1436671112863" x2="132.1233386792675" y1="1469" y2="1469" />
<line x1="110.1436671112863" x2="110.1436671112863" y1="1463" y2="1475" />
<line x1="132.1233386792675" x2="132.1233386792675" y1="1463" y2="1475" />
</g>
</g>
<text fill="hsl(162, 100%, 40%)" y="1507">bivariate.(((x * cos x) + y) ^ 2) * exp (x * sin ((x + (y * y)) + 1)).primops 2.84 μs</text>
<g>
<title>2.84 μs ± 220 ns</title>
<rect y="1513" rx="5" height="22" width="69.54938681401889" fill="hsl(162, 100%, 80%)" stroke="hsl(162, 100%, 55%)" />
<g stroke="hsl(162, 100%, 40%)"><line x1="64.17034611225473" x2="74.92842751578304" y1="1524" y2="1524" />
<line x1="64.17034611225473" x2="64.17034611225473" y1="1518" y2="1530" />
<line x1="74.92842751578304" x2="74.92842751578304" y1="1518" y2="1530" />
</g>
</g>
<text fill="hsl(168, 100%, 40%)" y="1562">bivariate.((tanh (exp y * cosh x) + (x ^ 2)) ^ 3) - ((((x * cos x) + y) ^ 2) * exp (x * sin ((x + (y * y)) + 1))).transformers 15.2 μs</text>
<g>
<title>15.2 μs ± 909 ns</title>
<rect y="1568" rx="5" height="22" width="372.30724644999475" fill="hsl(168, 100%, 80%)" stroke="hsl(168, 100%, 55%)" />
<g stroke="hsl(168, 100%, 40%)"><line x1="350.06308323792604" x2="394.55140966206346" y1="1579" y2="1579" />
<line x1="350.06308323792604" x2="350.06308323792604" y1="1573" y2="1585" />
<line x1="394.55140966206346" x2="394.55140966206346" y1="1573" y2="1585" />
</g>
</g>
<text fill="hsl(174, 100%, 40%)" y="1617">bivariate.((tanh (exp y * cosh x) + (x ^ 2)) ^ 3) - ((((x * cos x) + y) ^ 2) * exp (x * sin ((x + (y * y)) + 1))).ad 9.59 μs</text>
<g>
<title>9.59 μs ± 570 ns</title>
<rect y="1623" rx="5" height="22" width="234.60594782137457" fill="hsl(174, 100%, 80%)" stroke="hsl(174, 100%, 55%)" />
<g stroke="hsl(174, 100%, 40%)"><line x1="220.66119475186568" x2="248.55070089088346" y1="1634" y2="1634" />
<line x1="220.66119475186568" x2="220.66119475186568" y1="1628" y2="1640" />
<line x1="248.55070089088346" x2="248.55070089088346" y1="1628" y2="1640" />
</g>
</g>
<text fill="hsl(180, 100%, 40%)" y="1672">bivariate.((tanh (exp y * cosh x) + (x ^ 2)) ^ 3) - ((((x * cos x) + y) ^ 2) * exp (x * sin ((x + (y * y)) + 1))).ad/double 7.92 μs</text>
<g>
<title>7.92 μs ± 215 ns</title>
<rect y="1678" rx="5" height="22" width="193.7845619329489" fill="hsl(180, 100%, 80%)" stroke="hsl(180, 100%, 55%)" />
<g stroke="hsl(180, 100%, 40%)"><line x1="188.53143001938773" x2="199.03769384651005" y1="1689" y2="1689" />
<line x1="188.53143001938773" x2="188.53143001938773" y1="1683" y2="1695" />
<line x1="199.03769384651005" x2="199.03769384651005" y1="1683" y2="1695" />
</g>
</g>
<text fill="hsl(186, 100%, 40%)" y="1727">bivariate.((tanh (exp y * cosh x) + (x ^ 2)) ^ 3) - ((((x * cos x) + y) ^ 2) * exp (x * sin ((x + (y * y)) + 1))).primops 7.80 μs</text>
<g>
<title>7.80 μs ± 552 ns</title>
<rect y="1733" rx="5" height="22" width="190.72974461201807" fill="hsl(186, 100%, 80%)" stroke="hsl(186, 100%, 55%)" />
<g stroke="hsl(186, 100%, 40%)"><line x1="177.23078596945413" x2="204.228703254582" y1="1744" y2="1744" />
<line x1="177.23078596945413" x2="177.23078596945413" y1="1738" y2="1750" />
<line x1="204.228703254582" x2="204.228703254582" y1="1738" y2="1750" />
</g>
</g>
<text fill="hsl(192, 100%, 40%)" y="1782">trivariate.(x * y) * z.transformers 2.29 μs</text>
<g>
<title>2.29 μs ± 219 ns</title>
<rect y="1788" rx="5" height="22" width="56.15101329160702" fill="hsl(192, 100%, 80%)" stroke="hsl(192, 100%, 55%)" />
<g stroke="hsl(192, 100%, 40%)"><line x1="50.798005809945465" x2="61.50402077326858" y1="1799" y2="1799" />
<line x1="50.798005809945465" x2="50.798005809945465" y1="1793" y2="1805" />
<line x1="61.50402077326858" x2="61.50402077326858" y1="1793" y2="1805" />
</g>
</g>
<text fill="hsl(198, 100%, 40%)" y="1837">trivariate.(x * y) * z.ad 3.76 μs</text>
<g>
<title>3.76 μs ± 241 ns</title>
<rect y="1843" rx="5" height="22" width="92.079866512592" fill="hsl(198, 100%, 80%)" stroke="hsl(198, 100%, 55%)" />
<g stroke="hsl(198, 100%, 40%)"><line x1="86.19474392680317" x2="97.96498909838084" y1="1854" y2="1854" />
<line x1="86.19474392680317" x2="86.19474392680317" y1="1848" y2="1860" />
<line x1="97.96498909838084" x2="97.96498909838084" y1="1848" y2="1860" />
</g>
</g>
<text fill="hsl(204, 100%, 40%)" y="1892">trivariate.(x * y) * z.ad/double 3.83 μs</text>
<g>
<title>3.83 μs ± 277 ns</title>
<rect y="1898" rx="5" height="22" width="93.73801625540543" fill="hsl(204, 100%, 80%)" stroke="hsl(204, 100%, 55%)" />
<g stroke="hsl(204, 100%, 40%)"><line x1="86.96017931936883" x2="100.51585319144202" y1="1909" y2="1909" />
<line x1="86.96017931936883" x2="86.96017931936883" y1="1903" y2="1915" />
<line x1="100.51585319144202" x2="100.51585319144202" y1="1903" y2="1915" />
</g>
</g>
<text fill="hsl(210, 100%, 40%)" y="1947">trivariate.(x * y) * z.primops 522  ns</text>
<g>
<title>522  ns ±  28 ns</title>
<rect y="1953" rx="5" height="22" width="12.782139799193645" fill="hsl(210, 100%, 80%)" stroke="hsl(210, 100%, 55%)" />
<g stroke="hsl(210, 100%, 40%)"><line x1="12.095195543929822" x2="13.469084054457468" y1="1964" y2="1964" />
<line x1="12.095195543929822" x2="12.095195543929822" y1="1958" y2="1970" />
<line x1="13.469084054457468" x2="13.469084054457468" y1="1958" y2="1970" />
</g>
</g>
<text fill="hsl(216, 100%, 40%)" y="2002">trivariate.((tanh (exp (y + (z ^ 2)) * cosh x) + (x ^ 2)) ^ 3) - (((((x * ((z ^ 2) - 1)) * cos x) + y) ** (2 * z)) * exp (x * sin ((x + ((y * z) * x)) + 1))).transformers 21.3 μs</text>
<g>
<title>21.3 μs ± 2.1 μs</title>
<rect y="2008" rx="5" height="22" width="520.8885226311575" fill="hsl(216, 100%, 80%)" stroke="hsl(216, 100%, 55%)" />
<g stroke="hsl(216, 100%, 40%)"><line x1="468.8747850162701" x2="572.9022602460449" y1="2019" y2="2019" />
<line x1="468.8747850162701" x2="468.8747850162701" y1="2013" y2="2025" />
<line x1="572.9022602460449" x2="572.9022602460449" y1="2013" y2="2025" />
</g>
</g>
<text fill="hsl(222, 100%, 40%)" y="2057">trivariate.((tanh (exp (y + (z ^ 2)) * cosh x) + (x ^ 2)) ^ 3) - (((((x * ((z ^ 2) - 1)) * cos x) + y) ** (2 * z)) * exp (x * sin ((x + ((y * z) * x)) + 1))).ad 14.2 μs</text>
<g>
<title>14.2 μs ± 949 ns</title>
<rect y="2063" rx="5" height="22" width="346.6298544676466" fill="hsl(222, 100%, 80%)" stroke="hsl(222, 100%, 55%)" />
<g stroke="hsl(222, 100%, 40%)"><line x1="323.3999032500009" x2="369.8598056852924" y1="2074" y2="2074" />
<line x1="323.3999032500009" x2="323.3999032500009" y1="2068" y2="2080" />
<line x1="369.8598056852924" x2="369.8598056852924" y1="2068" y2="2080" />
</g>
</g>
<text fill="hsl(228, 100%, 40%)" y="2112">trivariate.((tanh (exp (y + (z ^ 2)) * cosh x) + (x ^ 2)) ^ 3) - (((((x * ((z ^ 2) - 1)) * cos x) + y) ** (2 * z)) * exp (x * sin ((x + ((y * z) * x)) + 1))).ad/double 11.5 μs</text>
<g>
<title>11.5 μs ± 956 ns</title>
<rect y="2118" rx="5" height="22" width="280.3545610258363" fill="hsl(228, 100%, 80%)" stroke="hsl(228, 100%, 55%)" />
<g stroke="hsl(228, 100%, 40%)"><line x1="256.97570174658864" x2="303.73342030508394" y1="2129" y2="2129" />
<line x1="256.97570174658864" x2="256.97570174658864" y1="2123" y2="2135" />
<line x1="303.73342030508394" x2="303.73342030508394" y1="2123" y2="2135" />
</g>
</g>
<text fill="hsl(234, 100%, 40%)" y="2167">trivariate.((tanh (exp (y + (z ^ 2)) * cosh x) + (x ^ 2)) ^ 3) - (((((x * ((z ^ 2) - 1)) * cos x) + y) ** (2 * z)) * exp (x * sin ((x + ((y * z) * x)) + 1))).primops 10.4 μs</text>
<g>
<title>10.4 μs ± 867 ns</title>
<rect y="2173" rx="5" height="22" width="253.83013516498062" fill="hsl(234, 100%, 80%)" stroke="hsl(234, 100%, 55%)" />
<g stroke="hsl(234, 100%, 40%)"><line x1="232.60645460708426" x2="275.053815722877" y1="2184" y2="2184" />
<line x1="232.60645460708426" x2="232.60645460708426" y1="2178" y2="2190" />
<line x1="275.053815722877" x2="275.053815722877" y1="2178" y2="2190" />
</g>
</g>
<text fill="hsl(240, 100%, 40%)" y="2222">4-ary.((x * y) * z) * w.transformers 3.14 μs</text>
<g>
<title>3.14 μs ± 220 ns</title>
<rect y="2228" rx="5" height="22" width="76.88586142052789" fill="hsl(240, 100%, 80%)" stroke="hsl(240, 100%, 55%)" />
<g stroke="hsl(240, 100%, 40%)"><line x1="71.49448919345197" x2="82.27723364760381" y1="2239" y2="2239" />
<line x1="71.49448919345197" x2="71.49448919345197" y1="2233" y2="2245" />
<line x1="82.27723364760381" x2="82.27723364760381" y1="2233" y2="2245" />
</g>
</g>
<text fill="hsl(246, 100%, 40%)" y="2277">4-ary.((x * y) * z) * w.ad 4.90 μs</text>
<g>
<title>4.90 μs ± 455 ns</title>
<rect y="2283" rx="5" height="22" width="119.91162979499126" fill="hsl(246, 100%, 80%)" stroke="hsl(246, 100%, 55%)" />
<g stroke="hsl(246, 100%, 40%)"><line x1="108.76750314073091" x2="131.05575644925162" y1="2294" y2="2294" />
<line x1="108.76750314073091" x2="108.76750314073091" y1="2288" y2="2300" />
<line x1="131.05575644925162" x2="131.05575644925162" y1="2288" y2="2300" />
</g>
</g>
<text fill="hsl(252, 100%, 40%)" y="2332">4-ary.((x * y) * z) * w.ad/double 4.88 μs</text>
<g>
<title>4.88 μs ± 432 ns</title>
<rect y="2338" rx="5" height="22" width="119.47339576749339" fill="hsl(252, 100%, 80%)" stroke="hsl(252, 100%, 55%)" />
<g stroke="hsl(252, 100%, 40%)"><line x1="108.90963375687379" x2="130.03715777811297" y1="2349" y2="2349" />
<line x1="108.90963375687379" x2="108.90963375687379" y1="2343" y2="2355" />
<line x1="130.03715777811297" x2="130.03715777811297" y1="2343" y2="2355" />
</g>
</g>
<text fill="hsl(258, 100%, 40%)" y="2387">4-ary.((x * y) * z) * w.primops 746  ns</text>
<g>
<title>746  ns ±  60 ns</title>
<rect y="2393" rx="5" height="22" width="18.25944122645786" fill="hsl(258, 100%, 80%)" stroke="hsl(258, 100%, 55%)" />
<g stroke="hsl(258, 100%, 40%)"><line x1="16.77936458130117" x2="19.73951787161455" y1="2404" y2="2404" />
<line x1="16.77936458130117" x2="16.77936458130117" y1="2398" y2="2410" />
<line x1="19.73951787161455" x2="19.73951787161455" y1="2398" y2="2410" />
</g>
</g>
<text fill="hsl(264, 100%, 40%)" y="2442">4-ary.((x + w) ^ 4) * exp (x + (cos ((y ^ 2) * sin z) * w)).transformers 8.09 μs</text>
<g>
<title>8.09 μs ± 741 ns</title>
<rect y="2448" rx="5" height="22" width="198.0569461072311" fill="hsl(264, 100%, 80%)" stroke="hsl(264, 100%, 55%)" />
<g stroke="hsl(264, 100%, 40%)"><line x1="179.92309559391862" x2="216.1907966205436" y1="2459" y2="2459" />
<line x1="179.92309559391862" x2="179.92309559391862" y1="2453" y2="2465" />
<line x1="216.1907966205436" x2="216.1907966205436" y1="2453" y2="2465" />
</g>
</g>
<text fill="hsl(270, 100%, 40%)" y="2497">4-ary.((x + w) ^ 4) * exp (x + (cos ((y ^ 2) * sin z) * w)).ad 8.07 μs</text>
<g>
<title>8.07 μs ± 421 ns</title>
<rect y="2503" rx="5" height="22" width="197.52634797645567" fill="hsl(270, 100%, 80%)" stroke="hsl(270, 100%, 55%)" />
<g stroke="hsl(270, 100%, 40%)"><line x1="187.2274201522934" x2="207.82527580061793" y1="2514" y2="2514" />
<line x1="187.2274201522934" x2="187.2274201522934" y1="2508" y2="2520" />
<line x1="207.82527580061793" x2="207.82527580061793" y1="2508" y2="2520" />
</g>
</g>
<text fill="hsl(276, 100%, 40%)" y="2552">4-ary.((x + w) ^ 4) * exp (x + (cos ((y ^ 2) * sin z) * w)).ad/double 7.29 μs</text>
<g>
<title>7.29 μs ± 652 ns</title>
<rect y="2558" rx="5" height="22" width="178.259293902004" fill="hsl(276, 100%, 80%)" stroke="hsl(276, 100%, 55%)" />
<g stroke="hsl(276, 100%, 40%)"><line x1="162.3052851606663" x2="194.2133026433417" y1="2569" y2="2569" />
<line x1="162.3052851606663" x2="162.3052851606663" y1="2563" y2="2575" />
<line x1="194.2133026433417" x2="194.2133026433417" y1="2563" y2="2575" />
</g>
</g>
<text fill="hsl(282, 100%, 40%)" y="2607">4-ary.((x + w) ^ 4) * exp (x + (cos ((y ^ 2) * sin z) * w)).primops 3.39 μs</text>
<g>
<title>3.39 μs ± 213 ns</title>
<rect y="2613" rx="5" height="22" width="83.02852693376035" fill="hsl(282, 100%, 80%)" stroke="hsl(282, 100%, 55%)" />
<g stroke="hsl(282, 100%, 40%)"><line x1="77.81092155740689" x2="88.24613231011381" y1="2624" y2="2624" />
<line x1="77.81092155740689" x2="77.81092155740689" y1="2618" y2="2630" />
<line x1="88.24613231011381" x2="88.24613231011381" y1="2618" y2="2630" />
</g>
</g>
<text fill="hsl(288, 100%, 40%)" y="2662">4-ary.(log ((x ^ 2) + w) / (log (x + w) ^ 4)) * exp (x + (cos ((y ^ 2) * sin z) * w)).transformers 12.5 μs</text>
<g>
<title>12.5 μs ± 1.2 μs</title>
<rect y="2668" rx="5" height="22" width="306.4185854744075" fill="hsl(288, 100%, 80%)" stroke="hsl(288, 100%, 55%)" />
<g stroke="hsl(288, 100%, 40%)"><line x1="276.71913438814346" x2="336.11803656067156" y1="2679" y2="2679" />
<line x1="276.71913438814346" x2="276.71913438814346" y1="2673" y2="2685" />
<line x1="336.11803656067156" x2="336.11803656067156" y1="2673" y2="2685" />
</g>
</g>
<text fill="hsl(294, 100%, 40%)" y="2717">4-ary.(log ((x ^ 2) + w) / (log (x + w) ^ 4)) * exp (x + (cos ((y ^ 2) * sin z) * w)).ad 10.8 μs</text>
<g>
<title>10.8 μs ± 429 ns</title>
<rect y="2723" rx="5" height="22" width="265.233811066279" fill="hsl(294, 100%, 80%)" stroke="hsl(294, 100%, 55%)" />
<g stroke="hsl(294, 100%, 40%)"><line x1="254.72632387355034" x2="275.7412982590076" y1="2734" y2="2734" />
<line x1="254.72632387355034" x2="254.72632387355034" y1="2728" y2="2740" />
<line x1="275.7412982590076" x2="275.7412982590076" y1="2728" y2="2740" />
</g>
</g>
<text fill="hsl(300, 100%, 40%)" y="2772">4-ary.(log ((x ^ 2) + w) / (log (x + w) ^ 4)) * exp (x + (cos ((y ^ 2) * sin z) * w)).ad/double 8.94 μs</text>
<g>
<title>8.94 μs ± 866 ns</title>
<rect y="2778" rx="5" height="22" width="218.76336321946098" fill="hsl(300, 100%, 80%)" stroke="hsl(300, 100%, 55%)" />
<g stroke="hsl(300, 100%, 40%)"><line x1="197.57437731016" x2="239.95234912876197" y1="2789" y2="2789" />
<line x1="197.57437731016" x2="197.57437731016" y1="2783" y2="2795" />
<line x1="239.95234912876197" x2="239.95234912876197" y1="2783" y2="2795" />
</g>
</g>
<text fill="hsl(306, 100%, 40%)" y="2827">4-ary.(log ((x ^ 2) + w) / (log (x + w) ^ 4)) * exp (x + (cos ((y ^ 2) * sin z) * w)).primops 5.15 μs</text>
<g>
<title>5.15 μs ± 447 ns</title>
<rect y="2833" rx="5" height="22" width="126.11991663934701" fill="hsl(306, 100%, 80%)" stroke="hsl(306, 100%, 55%)" />
<g stroke="hsl(306, 100%, 40%)"><line x1="115.19452775549763" x2="137.0453055231964" y1="2844" y2="2844" />
<line x1="115.19452775549763" x2="115.19452775549763" y1="2838" y2="2850" />
<line x1="137.0453055231964" x2="137.0453055231964" y1="2838" y2="2850" />
</g>
</g>
<text fill="hsl(312, 100%, 40%)" y="2882">4-ary.(logBase ((x ^ 2) + w) ((cos ((x ^ 2) + (2 * z)) + w) + 1) ^ 4) * exp (x + ((sin (pi * x) * cos ((exp y ^ 2) * sin z)) * w)).transformers 26.7 μs</text>
<g>
<title>26.7 μs ± 2.1 μs</title>
<rect y="2888" rx="5" height="22" width="653.0290128962257" fill="hsl(312, 100%, 80%)" stroke="hsl(312, 100%, 55%)" />
<g stroke="hsl(312, 100%, 40%)"><line x1="602.7410037402451" x2="703.3170220522063" y1="2899" y2="2899" />
<line x1="602.7410037402451" x2="602.7410037402451" y1="2893" y2="2905" />
<line x1="703.3170220522063" x2="703.3170220522063" y1="2893" y2="2905" />
</g>
</g>
<text fill="hsl(318, 100%, 40%)" y="2937">4-ary.(logBase ((x ^ 2) + w) ((cos ((x ^ 2) + (2 * z)) + w) + 1) ^ 4) * exp (x + ((sin (pi * x) * cos ((exp y ^ 2) * sin z)) * w)).ad 14.4 μs</text>
<g>
<title>14.4 μs ± 986 ns</title>
<rect y="2943" rx="5" height="22" width="352.0420973119664" fill="hsl(318, 100%, 80%)" stroke="hsl(318, 100%, 55%)" />
<g stroke="hsl(318, 100%, 40%)"><line x1="327.92192740990987" x2="376.16226721402296" y1="2954" y2="2954" />
<line x1="327.92192740990987" x2="327.92192740990987" y1="2948" y2="2960" />
<line x1="376.16226721402296" x2="376.16226721402296" y1="2948" y2="2960" />
</g>
</g>
<text fill="hsl(324, 100%, 40%)" y="2992">4-ary.(logBase ((x ^ 2) + w) ((cos ((x ^ 2) + (2 * z)) + w) + 1) ^ 4) * exp (x + ((sin (pi * x) * cos ((exp y ^ 2) * sin z)) * w)).ad/double 11.5 μs</text>
<g>
<title>11.5 μs ± 968 ns</title>
<rect y="2998" rx="5" height="22" width="280.1816260637261" fill="hsl(324, 100%, 80%)" stroke="hsl(324, 100%, 55%)" />
<g stroke="hsl(324, 100%, 40%)"><line x1="256.4962402981576" x2="303.86701182929465" y1="3009" y2="3009" />
<line x1="256.4962402981576" x2="256.4962402981576" y1="3003" y2="3015" />
<line x1="303.86701182929465" x2="303.86701182929465" y1="3003" y2="3015" />
</g>
</g>
<text fill="hsl(330, 100%, 40%)" y="3047">4-ary.(logBase ((x ^ 2) + w) ((cos ((x ^ 2) + (2 * z)) + w) + 1) ^ 4) * exp (x + ((sin (pi * x) * cos ((exp y ^ 2) * sin z)) * w)).primops 15.2 μs</text>
<g>
<title>15.2 μs ± 1.2 μs</title>
<rect y="3053" rx="5" height="22" width="372.5766315565076" fill="hsl(330, 100%, 80%)" stroke="hsl(330, 100%, 55%)" />
<g stroke="hsl(330, 100%, 40%)"><line x1="342.0397133107775" x2="403.11354980223774" y1="3064" y2="3064" />
<line x1="342.0397133107775" x2="342.0397133107775" y1="3058" y2="3070" />
<line x1="403.11354980223774" x2="403.11354980223774" y1="3058" y2="3070" />
</g>
</g>
<text fill="hsl(336, 100%, 40%)" y="3102">4-ary.(logBase ((x ^ 2) + tanh w) ((cos ((x ^ 2) + (2 * z)) + w) + 1) ^ 4) + exp (x + ((sin ((pi * x) + (w ^ 2)) * (cosh ((exp y ^ 2) * sin z) ^ 2)) * (w + 1))).transformers 36.6 μs</text>
<g>
<title>36.6 μs ± 1.8 μs</title>
<rect y="3108" rx="5" height="22" width="895.6505500394926" fill="hsl(336, 100%, 80%)" stroke="hsl(336, 100%, 55%)" />
<g stroke="hsl(336, 100%, 40%)"><line x1="851.3011000789852" x2="940.0" y1="3119" y2="3119" />
<line x1="851.3011000789852" x2="851.3011000789852" y1="3113" y2="3125" />
<line x1="940.0" x2="940.0" y1="3113" y2="3125" />
</g>
</g>
<text fill="hsl(342, 100%, 40%)" y="3157">4-ary.(logBase ((x ^ 2) + tanh w) ((cos ((x ^ 2) + (2 * z)) + w) + 1) ^ 4) + exp (x + ((sin ((pi * x) + (w ^ 2)) * (cosh ((exp y ^ 2) * sin z) ^ 2)) * (w + 1))).ad 18.7 μs</text>
<g>
<title>18.7 μs ± 1.1 μs</title>
<rect y="3163" rx="5" height="22" width="456.76395485989144" fill="hsl(342, 100%, 80%)" stroke="hsl(342, 100%, 55%)" />
<g stroke="hsl(342, 100%, 40%)"><line x1="430.6775917553487" x2="482.85031796443417" y1="3174" y2="3174" />
<line x1="430.6775917553487" x2="430.6775917553487" y1="3168" y2="3180" />
<line x1="482.85031796443417" x2="482.85031796443417" y1="3168" y2="3180" />
</g>
</g>
<text fill="hsl(348, 100%, 40%)" y="3212">4-ary.(logBase ((x ^ 2) + tanh w) ((cos ((x ^ 2) + (2 * z)) + w) + 1) ^ 4) + exp (x + ((sin ((pi * x) + (w ^ 2)) * (cosh ((exp y ^ 2) * sin z) ^ 2)) * (w + 1))).ad/double 15.4 μs</text>
<g>
<title>15.4 μs ± 766 ns</title>
<rect y="3218" rx="5" height="22" width="375.79290867016124" fill="hsl(348, 100%, 80%)" stroke="hsl(348, 100%, 55%)" />
<g stroke="hsl(348, 100%, 40%)"><line x1="357.0496263464017" x2="394.5361909939208" y1="3229" y2="3229" />
<line x1="357.0496263464017" x2="357.0496263464017" y1="3223" y2="3235" />
<line x1="394.5361909939208" x2="394.5361909939208" y1="3223" y2="3235" />
</g>
</g>
<text fill="hsl(354, 100%, 40%)" y="3267">4-ary.(logBase ((x ^ 2) + tanh w) ((cos ((x ^ 2) + (2 * z)) + w) + 1) ^ 4) + exp (x + ((sin ((pi * x) + (w ^ 2)) * (cosh ((exp y ^ 2) * sin z) ^ 2)) * (w + 1))).primops 21.5 μs</text>
<g>
<title>21.5 μs ± 2.0 μs</title>
<rect y="3273" rx="5" height="22" width="525.7601846813543" fill="hsl(354, 100%, 80%)" stroke="hsl(354, 100%, 55%)" />
<g stroke="hsl(354, 100%, 40%)"><line x1="476.33503975482716" x2="575.1853296078814" y1="3284" y2="3284" />
<line x1="476.33503975482716" x2="476.33503975482716" y1="3278" y2="3290" />
<line x1="575.1853296078814" x2="575.1853296078814" y1="3278" y2="3290" />
</g>
</g>
</g>
</svg>
