<svg xmlns="http://www.w3.org/2000/svg" height="667" width="960.0" font-size="16" font-family="sans-serif" stroke-width="2">
<g transform="translate(10.0 0)">
<text fill="hsl(0, 100%, 40%)" y="22">univariate.id.transformers 113  ns</text>
<g>
<title>113  ns ± 6.9 ns</title>
<rect y="28" rx="5" height="22" width="74.32264341787968" fill="hsl(0, 100%, 80%)" stroke="hsl(0, 100%, 55%)" />
<g stroke="hsl(0, 100%, 40%)"><line x1="69.79439383174496" x2="78.8508930040144" y1="39" y2="39" />
<line x1="69.79439383174496" x2="69.79439383174496" y1="33" y2="45" />
<line x1="78.8508930040144" x2="78.8508930040144" y1="33" y2="45" />
</g>
</g>
<text fill="hsl(30, 100%, 40%)" y="77">univariate.id.ad 38.0 ns</text>
<g>
<title>38.0 ns ± 3.7 ns</title>
<rect y="83" rx="5" height="22" width="25.009334280644406" fill="hsl(30, 100%, 80%)" stroke="hsl(30, 100%, 55%)" />
<g stroke="hsl(30, 100%, 40%)"><line x1="22.59847893574501" x2="27.420189625543802" y1="94" y2="94" />
<line x1="22.59847893574501" x2="22.59847893574501" y1="88" y2="100" />
<line x1="27.420189625543802" x2="27.420189625543802" y1="88" y2="100" />
</g>
</g>
<text fill="hsl(60, 100%, 40%)" y="132">univariate.id.ad/double 37.4 ns</text>
<g>
<title>37.4 ns ± 1.9 ns</title>
<rect y="138" rx="5" height="22" width="24.615859527301108" fill="hsl(60, 100%, 80%)" stroke="hsl(60, 100%, 55%)" />
<g stroke="hsl(60, 100%, 40%)"><line x1="23.389376349655784" x2="25.842342704946432" y1="149" y2="149" />
<line x1="23.389376349655784" x2="23.389376349655784" y1="143" y2="155" />
<line x1="25.842342704946432" x2="25.842342704946432" y1="143" y2="155" />
</g>
</g>
<text fill="hsl(90, 100%, 40%)" y="187">univariate.id.primops 77.2 ns</text>
<g>
<title>77.2 ns ± 3.3 ns</title>
<rect y="193" rx="5" height="22" width="50.7661389957336" fill="hsl(90, 100%, 80%)" stroke="hsl(90, 100%, 55%)" />
<g stroke="hsl(90, 100%, 40%)"><line x1="48.598737929658654" x2="52.93354006180854" y1="204" y2="204" />
<line x1="48.598737929658654" x2="48.598737929658654" y1="198" y2="210" />
<line x1="52.93354006180854" x2="52.93354006180854" y1="198" y2="210" />
</g>
</g>
<g fill="hsl(120, 100%, 40%)">
<text y="242">univariate.(x + 1) * (x + 1).transformers</text>
<text y="242" x="429.23555496445834" text-anchor="end">652  ns</text>
</g>
<g>
<title>652  ns ±  56 ns</title>
<rect y="248" rx="5" height="22" width="429.23555496445834" fill="hsl(120, 100%, 80%)" stroke="hsl(120, 100%, 55%)" />
<g stroke="hsl(120, 100%, 40%)"><line x1="392.65029871798015" x2="465.82081121093654" y1="259" y2="259" />
<line x1="392.65029871798015" x2="392.65029871798015" y1="253" y2="265" />
<line x1="465.82081121093654" x2="465.82081121093654" y1="253" y2="265" />
</g>
</g>
<text fill="hsl(150, 100%, 40%)" y="297">univariate.(x + 1) * (x + 1).ad 310  ns</text>
<g>
<title>310  ns ±  26 ns</title>
<rect y="303" rx="5" height="22" width="204.14628256235977" fill="hsl(150, 100%, 80%)" stroke="hsl(150, 100%, 55%)" />
<g stroke="hsl(150, 100%, 40%)"><line x1="186.9702541990263" x2="221.32231092569324" y1="314" y2="314" />
<line x1="186.9702541990263" x2="186.9702541990263" y1="308" y2="320" />
<line x1="221.32231092569324" x2="221.32231092569324" y1="308" y2="320" />
</g>
</g>
<text fill="hsl(180, 100%, 40%)" y="352">univariate.(x + 1) * (x + 1).ad/double 39.8 ns</text>
<g>
<title>39.8 ns ± 3.3 ns</title>
<rect y="358" rx="5" height="22" width="26.168703035478668" fill="hsl(180, 100%, 80%)" stroke="hsl(180, 100%, 55%)" />
<g stroke="hsl(180, 100%, 40%)"><line x1="23.972350649759733" x2="28.365055421197603" y1="369" y2="369" />
<line x1="23.972350649759733" x2="23.972350649759733" y1="363" y2="375" />
<line x1="28.365055421197603" x2="28.365055421197603" y1="363" y2="375" />
</g>
</g>
<text fill="hsl(210, 100%, 40%)" y="407">univariate.(x + 1) * (x + 1).primops 500  ns</text>
<g>
<title>500  ns ±  31 ns</title>
<rect y="413" rx="5" height="22" width="328.809348980299" fill="hsl(210, 100%, 80%)" stroke="hsl(210, 100%, 55%)" />
<g stroke="hsl(210, 100%, 40%)"><line x1="308.6816019823534" x2="348.93709597824454" y1="424" y2="424" />
<line x1="308.6816019823534" x2="308.6816019823534" y1="418" y2="430" />
<line x1="348.93709597824454" x2="348.93709597824454" y1="418" y2="430" />
</g>
</g>
<g fill="hsl(240, 100%, 40%)">
<text y="462">univariate.x * exp ((x * x) + 1).transformers</text>
<text y="462" x="862.334137147777" text-anchor="end">1.31 μs</text>
</g>
<g>
<title>1.31 μs ± 118 ns</title>
<rect y="468" rx="5" height="22" width="862.334137147777" fill="hsl(240, 100%, 80%)" stroke="hsl(240, 100%, 55%)" />
<g stroke="hsl(240, 100%, 40%)"><line x1="784.668274295554" x2="940.0" y1="479" y2="479" />
<line x1="784.668274295554" x2="784.668274295554" y1="473" y2="485" />
<line x1="940.0" x2="940.0" y1="473" y2="485" />
</g>
</g>
<g fill="hsl(270, 100%, 40%)">
<text y="517">univariate.x * exp ((x * x) + 1).ad</text>
<text y="517" x="402.03579015893126" text-anchor="end">611  ns</text>
</g>
<g>
<title>611  ns ±  54 ns</title>
<rect y="523" rx="5" height="22" width="402.03579015893126" fill="hsl(270, 100%, 80%)" stroke="hsl(270, 100%, 55%)" />
<g stroke="hsl(270, 100%, 40%)"><line x1="366.6757011210237" x2="437.39587919683885" y1="534" y2="534" />
<line x1="366.6757011210237" x2="366.6757011210237" y1="528" y2="540" />
<line x1="437.39587919683885" x2="437.39587919683885" y1="528" y2="540" />
</g>
</g>
<text fill="hsl(300, 100%, 40%)" y="572">univariate.x * exp ((x * x) + 1).ad/double 48.7 ns</text>
<g>
<title>48.7 ns ± 3.4 ns</title>
<rect y="578" rx="5" height="22" width="32.06292852117975" fill="hsl(300, 100%, 80%)" stroke="hsl(300, 100%, 55%)" />
<g stroke="hsl(300, 100%, 40%)"><line x1="29.817885279695926" x2="34.30797176266358" y1="589" y2="589" />
<line x1="29.817885279695926" x2="29.817885279695926" y1="583" y2="595" />
<line x1="34.30797176266358" x2="34.30797176266358" y1="583" y2="595" />
</g>
</g>
<g fill="hsl(330, 100%, 40%)">
<text y="627">univariate.x * exp ((x * x) + 1).primops</text>
<text y="627" x="426.5095250261619" text-anchor="end">648  ns</text>
</g>
<g>
<title>648  ns ±  40 ns</title>
<rect y="633" rx="5" height="22" width="426.5095250261619" fill="hsl(330, 100%, 80%)" stroke="hsl(330, 100%, 55%)" />
<g stroke="hsl(330, 100%, 40%)"><line x1="400.44807347027347" x2="452.5709765820503" y1="644" y2="644" />
<line x1="400.44807347027347" x2="400.44807347027347" y1="638" y2="650" />
<line x1="452.5709765820503" x2="452.5709765820503" y1="638" y2="650" />
</g>
</g>
</g>
</svg>
