<svg xmlns="http://www.w3.org/2000/svg" height="337" width="960.0" font-size="16" font-family="sans-serif" stroke-width="2">
<g transform="translate(10.0 0)">
<text fill="hsl(0, 100%, 40%)" y="22">univariate.id.transformers 76.4 ns</text>
<g>
<title>76.4 ns ± 2.7 ns</title>
<rect y="28" rx="5" height="22" width="260.47646341817335" fill="hsl(0, 100%, 80%)" stroke="hsl(0, 100%, 55%)" />
<g stroke="hsl(0, 100%, 40%)"><line x1="251.39891749136603" x2="269.55400934498067" y1="39" y2="39" />
<line x1="251.39891749136603" x2="251.39891749136603" y1="33" y2="45" />
<line x1="269.55400934498067" x2="269.55400934498067" y1="33" y2="45" />
</g>
</g>
<text fill="hsl(60, 100%, 40%)" y="77">univariate.id.ad 23.0 ns</text>
<g>
<title>23.0 ns ± 1.4 ns</title>
<rect y="83" rx="5" height="22" width="78.31514641437154" fill="hsl(60, 100%, 80%)" stroke="hsl(60, 100%, 55%)" />
<g stroke="hsl(60, 100%, 40%)"><line x1="73.56836056534232" x2="83.06193226340076" y1="94" y2="94" />
<line x1="73.56836056534232" x2="73.56836056534232" y1="88" y2="100" />
<line x1="83.06193226340076" x2="83.06193226340076" y1="88" y2="100" />
</g>
</g>
<text fill="hsl(120, 100%, 40%)" y="132">univariate.id.ad/double 23.0 ns</text>
<g>
<title>23.0 ns ± 1.3 ns</title>
<rect y="138" rx="5" height="22" width="78.58795019879851" fill="hsl(120, 100%, 80%)" stroke="hsl(120, 100%, 55%)" />
<g stroke="hsl(120, 100%, 40%)"><line x1="74.12078822880693" x2="83.05511216879009" y1="149" y2="149" />
<line x1="74.12078822880693" x2="74.12078822880693" y1="143" y2="155" />
<line x1="83.05511216879009" x2="83.05511216879009" y1="143" y2="155" />
</g>
</g>
<g fill="hsl(180, 100%, 40%)">
<text y="187">univariate.id.backprop</text>
<text y="187" x="869.8553269292162" text-anchor="end">255  ns</text>
</g>
<g>
<title>255  ns ±  21 ns</title>
<rect y="193" rx="5" height="22" width="869.8553269292162" fill="hsl(180, 100%, 80%)" stroke="hsl(180, 100%, 55%)" />
<g stroke="hsl(180, 100%, 40%)"><line x1="799.7106538584324" x2="940.0" y1="204" y2="204" />
<line x1="799.7106538584324" x2="799.7106538584324" y1="198" y2="210" />
<line x1="940.0" x2="940.0" y1="198" y2="210" />
</g>
</g>
<text fill="hsl(240, 100%, 40%)" y="242">univariate.id.primops 53.3 ns</text>
<g>
<title>53.3 ns ± 5.2 ns</title>
<rect y="248" rx="5" height="22" width="181.89874336129088" fill="hsl(240, 100%, 80%)" stroke="hsl(240, 100%, 55%)" />
<g stroke="hsl(240, 100%, 40%)"><line x1="164.05737585976723" x2="199.74011086281453" y1="259" y2="259" />
<line x1="164.05737585976723" x2="164.05737585976723" y1="253" y2="265" />
<line x1="199.74011086281453" x2="199.74011086281453" y1="253" y2="265" />
</g>
</g>
<text fill="hsl(300, 100%, 40%)" y="297">univariate.id.primops/Double 72.9 ns</text>
<g>
<title>72.9 ns ± 5.3 ns</title>
<rect y="303" rx="5" height="22" width="248.43217633572277" fill="hsl(300, 100%, 80%)" stroke="hsl(300, 100%, 55%)" />
<g stroke="hsl(300, 100%, 40%)"><line x1="230.42712656354297" x2="266.4372261079026" y1="314" y2="314" />
<line x1="230.42712656354297" x2="230.42712656354297" y1="308" y2="320" />
<line x1="266.4372261079026" x2="266.4372261079026" y1="308" y2="320" />
</g>
</g>
</g>
</svg>
