<svg xmlns="http://www.w3.org/2000/svg" height="337" width="960.0" font-size="16" font-family="sans-serif" stroke-width="2">
<g transform="translate(10.0 0)">
<text fill="hsl(0, 100%, 40%)" y="22">univariate.id.transformers 75.3 ns</text>
<g>
<title>75.3 ns ± 5.6 ns</title>
<rect y="28" rx="5" height="22" width="261.59674576872345" fill="hsl(0, 100%, 80%)" stroke="hsl(0, 100%, 55%)" />
<g stroke="hsl(0, 100%, 40%)"><line x1="242.07180146529078" x2="281.1216900721561" y1="39" y2="39" />
<line x1="242.07180146529078" x2="242.07180146529078" y1="33" y2="45" />
<line x1="281.1216900721561" x2="281.1216900721561" y1="33" y2="45" />
</g>
</g>
<text fill="hsl(60, 100%, 40%)" y="77">univariate.id.ad 22.6 ns</text>
<g>
<title>22.6 ns ± 1.3 ns</title>
<rect y="83" rx="5" height="22" width="78.51305867444017" fill="hsl(60, 100%, 80%)" stroke="hsl(60, 100%, 55%)" />
<g stroke="hsl(60, 100%, 40%)"><line x1="73.87319286345013" x2="83.15292448543022" y1="94" y2="94" />
<line x1="73.87319286345013" x2="73.87319286345013" y1="88" y2="100" />
<line x1="83.15292448543022" x2="83.15292448543022" y1="88" y2="100" />
</g>
</g>
<text fill="hsl(120, 100%, 40%)" y="132">univariate.id.ad/double 22.6 ns</text>
<g>
<title>22.6 ns ± 1.3 ns</title>
<rect y="138" rx="5" height="22" width="78.57209888311294" fill="hsl(120, 100%, 80%)" stroke="hsl(120, 100%, 55%)" />
<g stroke="hsl(120, 100%, 40%)"><line x1="74.05031348946845" x2="83.09388427675744" y1="149" y2="149" />
<line x1="74.05031348946845" x2="74.05031348946845" y1="143" y2="155" />
<line x1="83.09388427675744" x2="83.09388427675744" y1="143" y2="155" />
</g>
</g>
<g fill="hsl(180, 100%, 40%)">
<text y="187">univariate.id.backprop</text>
<text y="187" x="861.8307637172425" text-anchor="end">248  ns</text>
</g>
<g>
<title>248  ns ±  23 ns</title>
<rect y="193" rx="5" height="22" width="861.8307637172425" fill="hsl(180, 100%, 80%)" stroke="hsl(180, 100%, 55%)" />
<g stroke="hsl(180, 100%, 40%)"><line x1="783.6615274344849" x2="940.0" y1="204" y2="204" />
<line x1="783.6615274344849" x2="783.6615274344849" y1="198" y2="210" />
<line x1="940.0" x2="940.0" y1="198" y2="210" />
</g>
</g>
<text fill="hsl(240, 100%, 40%)" y="242">univariate.id.primops 52.2 ns</text>
<g>
<title>52.2 ns ± 2.9 ns</title>
<rect y="248" rx="5" height="22" width="181.42361534454284" fill="hsl(240, 100%, 80%)" stroke="hsl(240, 100%, 55%)" />
<g stroke="hsl(240, 100%, 40%)"><line x1="171.3034289873385" x2="191.54380170174719" y1="259" y2="259" />
<line x1="171.3034289873385" x2="171.3034289873385" y1="253" y2="265" />
<line x1="191.54380170174719" x2="191.54380170174719" y1="253" y2="265" />
</g>
</g>
<text fill="hsl(300, 100%, 40%)" y="297">univariate.id.primops/Double 71.2 ns</text>
<g>
<title>71.2 ns ± 5.9 ns</title>
<rect y="303" rx="5" height="22" width="247.1006380628309" fill="hsl(300, 100%, 80%)" stroke="hsl(300, 100%, 55%)" />
<g stroke="hsl(300, 100%, 40%)"><line x1="226.63105042063378" x2="267.570225705028" y1="314" y2="314" />
<line x1="226.63105042063378" x2="226.63105042063378" y1="308" y2="320" />
<line x1="267.570225705028" x2="267.570225705028" y1="308" y2="320" />
</g>
</g>
</g>
</svg>
