<svg xmlns="http://www.w3.org/2000/svg" height="337" width="960.0" font-size="16" font-family="sans-serif" stroke-width="2">
<g transform="translate(10.0 0)">
<text fill="hsl(0, 100%, 40%)" y="22">univariate.(x + 1) * (x + 1).transformers 476  ns</text>
<g>
<title>476  ns ±  25 ns</title>
<rect y="28" rx="5" height="22" width="314.9017402236485" fill="hsl(0, 100%, 80%)" stroke="hsl(0, 100%, 55%)" />
<g stroke="hsl(0, 100%, 40%)"><line x1="298.47217627208363" x2="331.3313041752134" y1="39" y2="39" />
<line x1="298.47217627208363" x2="298.47217627208363" y1="33" y2="45" />
<line x1="331.3313041752134" x2="331.3313041752134" y1="33" y2="45" />
</g>
</g>
<text fill="hsl(60, 100%, 40%)" y="77">univariate.(x + 1) * (x + 1).ad 212  ns</text>
<g>
<title>212  ns ±  21 ns</title>
<rect y="83" rx="5" height="22" width="140.4142129292662" fill="hsl(60, 100%, 80%)" stroke="hsl(60, 100%, 55%)" />
<g stroke="hsl(60, 100%, 40%)"><line x1="126.82061801098392" x2="154.00780784754846" y1="94" y2="94" />
<line x1="126.82061801098392" x2="126.82061801098392" y1="88" y2="100" />
<line x1="154.00780784754846" x2="154.00780784754846" y1="88" y2="100" />
</g>
</g>
<text fill="hsl(120, 100%, 40%)" y="132">univariate.(x + 1) * (x + 1).ad/double 27.5 ns</text>
<g>
<title>27.5 ns ± 2.7 ns</title>
<rect y="138" rx="5" height="22" width="18.197578243895983" fill="hsl(120, 100%, 80%)" stroke="hsl(120, 100%, 55%)" />
<g stroke="hsl(120, 100%, 40%)"><line x1="16.438827499503738" x2="19.956328988288227" y1="149" y2="149" />
<line x1="16.438827499503738" x2="16.438827499503738" y1="143" y2="155" />
<line x1="19.956328988288227" x2="19.956328988288227" y1="143" y2="155" />
</g>
</g>
<g fill="hsl(180, 100%, 40%)">
<text y="187">univariate.(x + 1) * (x + 1).backprop</text>
<text y="187" x="884.0746377291074" text-anchor="end">1.34 μs</text>
</g>
<g>
<title>1.34 μs ±  85 ns</title>
<rect y="193" rx="5" height="22" width="884.0746377291074" fill="hsl(180, 100%, 80%)" stroke="hsl(180, 100%, 55%)" />
<g stroke="hsl(180, 100%, 40%)"><line x1="828.1492754582148" x2="940.0" y1="204" y2="204" />
<line x1="828.1492754582148" x2="828.1492754582148" y1="198" y2="210" />
<line x1="940.0" x2="940.0" y1="198" y2="210" />
</g>
</g>
<text fill="hsl(240, 100%, 40%)" y="242">univariate.(x + 1) * (x + 1).primops 360  ns</text>
<g>
<title>360  ns ±  21 ns</title>
<rect y="248" rx="5" height="22" width="238.01032223913188" fill="hsl(240, 100%, 80%)" stroke="hsl(240, 100%, 55%)" />
<g stroke="hsl(240, 100%, 40%)"><line x1="223.9217891881162" x2="252.09885529014755" y1="259" y2="259" />
<line x1="223.9217891881162" x2="223.9217891881162" y1="253" y2="265" />
<line x1="252.09885529014755" x2="252.09885529014755" y1="253" y2="265" />
</g>
</g>
<text fill="hsl(300, 100%, 40%)" y="297">univariate.(x + 1) * (x + 1).primops/Double 274  ns</text>
<g>
<title>274  ns ±  21 ns</title>
<rect y="303" rx="5" height="22" width="181.61251902335738" fill="hsl(300, 100%, 80%)" stroke="hsl(300, 100%, 55%)" />
<g stroke="hsl(300, 100%, 40%)"><line x1="167.54118970422815" x2="195.6838483424866" y1="314" y2="314" />
<line x1="167.54118970422815" x2="167.54118970422815" y1="308" y2="320" />
<line x1="195.6838483424866" x2="195.6838483424866" y1="308" y2="320" />
</g>
</g>
</g>
</svg>
