<svg xmlns="http://www.w3.org/2000/svg" height="337" width="960.0" font-size="16" font-family="sans-serif" stroke-width="2">
<g transform="translate(10.0 0)">
<text fill="hsl(0, 100%, 40%)" y="22">univariate.(x + 1) * (x + 1).transformers 481  ns</text>
<g>
<title>481  ns ±  21 ns</title>
<rect y="28" rx="5" height="22" width="327.9993787386362" fill="hsl(0, 100%, 80%)" stroke="hsl(0, 100%, 55%)" />
<g stroke="hsl(0, 100%, 40%)"><line x1="313.36562537649456" x2="342.63313210077786" y1="39" y2="39" />
<line x1="313.36562537649456" x2="313.36562537649456" y1="33" y2="45" />
<line x1="342.63313210077786" x2="342.63313210077786" y1="33" y2="45" />
</g>
</g>
<text fill="hsl(60, 100%, 40%)" y="77">univariate.(x + 1) * (x + 1).ad 209  ns</text>
<g>
<title>209  ns ±  11 ns</title>
<rect y="83" rx="5" height="22" width="142.6228116141038" fill="hsl(60, 100%, 80%)" stroke="hsl(60, 100%, 55%)" />
<g stroke="hsl(60, 100%, 40%)"><line x1="134.95322395456083" x2="150.29239927364677" y1="94" y2="94" />
<line x1="134.95322395456083" x2="134.95322395456083" y1="88" y2="100" />
<line x1="150.29239927364677" x2="150.29239927364677" y1="88" y2="100" />
</g>
</g>
<text fill="hsl(120, 100%, 40%)" y="132">univariate.(x + 1) * (x + 1).ad/double 27.2 ns</text>
<g>
<title>27.2 ns ± 2.7 ns</title>
<rect y="138" rx="5" height="22" width="18.56815222645267" fill="hsl(120, 100%, 80%)" stroke="hsl(120, 100%, 55%)" />
<g stroke="hsl(120, 100%, 40%)"><line x1="16.724776861207598" x2="20.411527591697745" y1="149" y2="149" />
<line x1="16.724776861207598" x2="16.724776861207598" y1="143" y2="155" />
<line x1="20.411527591697745" x2="20.411527591697745" y1="143" y2="155" />
</g>
</g>
<g fill="hsl(180, 100%, 40%)">
<text y="187">univariate.(x + 1) * (x + 1).backprop</text>
<text y="187" x="871.5945369643254" text-anchor="end">1.28 μs</text>
</g>
<g>
<title>1.28 μs ± 100 ns</title>
<rect y="193" rx="5" height="22" width="871.5945369643254" fill="hsl(180, 100%, 80%)" stroke="hsl(180, 100%, 55%)" />
<g stroke="hsl(180, 100%, 40%)"><line x1="803.1890739286507" x2="940.0" y1="204" y2="204" />
<line x1="803.1890739286507" x2="803.1890739286507" y1="198" y2="210" />
<line x1="940.0" x2="940.0" y1="198" y2="210" />
</g>
</g>
<text fill="hsl(240, 100%, 40%)" y="242">univariate.(x + 1) * (x + 1).primops 352  ns</text>
<g>
<title>352  ns ±  23 ns</title>
<rect y="248" rx="5" height="22" width="240.19208298193843" fill="hsl(240, 100%, 80%)" stroke="hsl(240, 100%, 55%)" />
<g stroke="hsl(240, 100%, 40%)"><line x1="224.4749543126135" x2="255.90921165126335" y1="259" y2="259" />
<line x1="224.4749543126135" x2="224.4749543126135" y1="253" y2="265" />
<line x1="255.90921165126335" x2="255.90921165126335" y1="253" y2="265" />
</g>
</g>
<text fill="hsl(300, 100%, 40%)" y="297">univariate.(x + 1) * (x + 1).primops/Double 276  ns</text>
<g>
<title>276  ns ±  16 ns</title>
<rect y="303" rx="5" height="22" width="188.62123523597046" fill="hsl(300, 100%, 80%)" stroke="hsl(300, 100%, 55%)" />
<g stroke="hsl(300, 100%, 40%)"><line x1="177.3685952380607" x2="199.87387523388023" y1="314" y2="314" />
<line x1="177.3685952380607" x2="177.3685952380607" y1="308" y2="320" />
<line x1="199.87387523388023" x2="199.87387523388023" y1="308" y2="320" />
</g>
</g>
</g>
</svg>
