<svg xmlns="http://www.w3.org/2000/svg" height="337" width="960.0" font-size="16" font-family="sans-serif" stroke-width="2">
<g transform="translate(10.0 0)">
<g fill="hsl(0, 100%, 40%)">
<text y="22">univariate.x * exp ((x * x) + 1).transformers</text>
<text y="22" x="620.637311123836" text-anchor="end">1.17 μs</text>
</g>
<g>
<title>1.17 μs ±  90 ns</title>
<rect y="28" rx="5" height="22" width="620.637311123836" fill="hsl(0, 100%, 80%)" stroke="hsl(0, 100%, 55%)" />
<g stroke="hsl(0, 100%, 40%)"><line x1="573.1222636873931" x2="668.1523585602788" y1="39" y2="39" />
<line x1="573.1222636873931" x2="573.1222636873931" y1="33" y2="45" />
<line x1="668.1523585602788" x2="668.1523585602788" y1="33" y2="45" />
</g>
</g>
<text fill="hsl(60, 100%, 40%)" y="77">univariate.x * exp ((x * x) + 1).ad 444  ns</text>
<g>
<title>444  ns ±  24 ns</title>
<rect y="83" rx="5" height="22" width="234.70960737584284" fill="hsl(60, 100%, 80%)" stroke="hsl(60, 100%, 55%)" />
<g stroke="hsl(60, 100%, 40%)"><line x1="221.92229560577204" x2="247.49691914591364" y1="94" y2="94" />
<line x1="221.92229560577204" x2="221.92229560577204" y1="88" y2="100" />
<line x1="247.49691914591364" x2="247.49691914591364" y1="88" y2="100" />
</g>
</g>
<text fill="hsl(120, 100%, 40%)" y="132">univariate.x * exp ((x * x) + 1).ad/double 35.8 ns</text>
<g>
<title>35.8 ns ± 2.6 ns</title>
<rect y="138" rx="5" height="22" width="18.931644656284575" fill="hsl(120, 100%, 80%)" stroke="hsl(120, 100%, 55%)" />
<g stroke="hsl(120, 100%, 40%)"><line x1="17.545577815378024" x2="20.317711497191127" y1="149" y2="149" />
<line x1="17.545577815378024" x2="17.545577815378024" y1="143" y2="155" />
<line x1="20.317711497191127" x2="20.317711497191127" y1="143" y2="155" />
</g>
</g>
<g fill="hsl(180, 100%, 40%)">
<text y="187">univariate.x * exp ((x * x) + 1).backprop</text>
<text y="187" x="864.1255179009845" text-anchor="end">1.64 μs</text>
</g>
<g>
<title>1.64 μs ± 144 ns</title>
<rect y="193" rx="5" height="22" width="864.1255179009845" fill="hsl(180, 100%, 80%)" stroke="hsl(180, 100%, 55%)" />
<g stroke="hsl(180, 100%, 40%)"><line x1="788.251035801969" x2="940.0" y1="204" y2="204" />
<line x1="788.251035801969" x2="788.251035801969" y1="198" y2="210" />
<line x1="940.0" x2="940.0" y1="198" y2="210" />
</g>
</g>
<text fill="hsl(240, 100%, 40%)" y="242">univariate.x * exp ((x * x) + 1).primops 457  ns</text>
<g>
<title>457  ns ±  34 ns</title>
<rect y="248" rx="5" height="22" width="241.5665180701294" fill="hsl(240, 100%, 80%)" stroke="hsl(240, 100%, 55%)" />
<g stroke="hsl(240, 100%, 40%)"><line x1="223.568778206041" x2="259.5642579342178" y1="259" y2="259" />
<line x1="223.568778206041" x2="223.568778206041" y1="253" y2="265" />
<line x1="259.5642579342178" x2="259.5642579342178" y1="253" y2="265" />
</g>
</g>
<text fill="hsl(300, 100%, 40%)" y="297">univariate.x * exp ((x * x) + 1).primops/Double 364  ns</text>
<g>
<title>364  ns ±  32 ns</title>
<rect y="303" rx="5" height="22" width="192.25180229261625" fill="hsl(300, 100%, 80%)" stroke="hsl(300, 100%, 55%)" />
<g stroke="hsl(300, 100%, 40%)"><line x1="175.60949212127412" x2="208.89411246395838" y1="314" y2="314" />
<line x1="175.60949212127412" x2="175.60949212127412" y1="308" y2="320" />
<line x1="208.89411246395838" x2="208.89411246395838" y1="308" y2="320" />
</g>
</g>
</g>
</svg>
