<svg xmlns="http://www.w3.org/2000/svg" height="337" width="960.0" font-size="16" font-family="sans-serif" stroke-width="2">
<g transform="translate(10.0 0)">
<g fill="hsl(0, 100%, 40%)">
<text y="22">univariate.x * exp ((x * x) + 1).transformers</text>
<text y="22" x="605.0505767071849" text-anchor="end">1.11 μs</text>
</g>
<g>
<title>1.11 μs ±  51 ns</title>
<rect y="28" rx="5" height="22" width="605.0505767071849" fill="hsl(0, 100%, 80%)" stroke="hsl(0, 100%, 55%)" />
<g stroke="hsl(0, 100%, 40%)"><line x1="577.2885807862414" x2="632.8125726281284" y1="39" y2="39" />
<line x1="577.2885807862414" x2="577.2885807862414" y1="33" y2="45" />
<line x1="632.8125726281284" x2="632.8125726281284" y1="33" y2="45" />
</g>
</g>
<text fill="hsl(60, 100%, 40%)" y="77">univariate.x * exp ((x * x) + 1).ad 449  ns</text>
<g>
<title>449  ns ±  26 ns</title>
<rect y="83" rx="5" height="22" width="244.35982633582145" fill="hsl(60, 100%, 80%)" stroke="hsl(60, 100%, 55%)" />
<g stroke="hsl(60, 100%, 40%)"><line x1="230.186269958427" x2="258.5333827132159" y1="94" y2="94" />
<line x1="230.186269958427" x2="230.186269958427" y1="88" y2="100" />
<line x1="258.5333827132159" x2="258.5333827132159" y1="88" y2="100" />
</g>
</g>
<text fill="hsl(120, 100%, 40%)" y="132">univariate.x * exp ((x * x) + 1).ad/double 36.0 ns</text>
<g>
<title>36.0 ns ± 2.6 ns</title>
<rect y="138" rx="5" height="22" width="19.613944368809765" fill="hsl(120, 100%, 80%)" stroke="hsl(120, 100%, 55%)" />
<g stroke="hsl(120, 100%, 40%)"><line x1="18.20726684088724" x2="21.02062189673229" y1="149" y2="149" />
<line x1="18.20726684088724" x2="18.20726684088724" y1="143" y2="155" />
<line x1="21.02062189673229" x2="21.02062189673229" y1="143" y2="155" />
</g>
</g>
<g fill="hsl(180, 100%, 40%)">
<text y="187">univariate.x * exp ((x * x) + 1).backprop</text>
<text y="187" x="889.4162683530012" text-anchor="end">1.63 μs</text>
</g>
<g>
<title>1.63 μs ±  93 ns</title>
<rect y="193" rx="5" height="22" width="889.4162683530012" fill="hsl(180, 100%, 80%)" stroke="hsl(180, 100%, 55%)" />
<g stroke="hsl(180, 100%, 40%)"><line x1="838.8325367060024" x2="940.0" y1="204" y2="204" />
<line x1="838.8325367060024" x2="838.8325367060024" y1="198" y2="210" />
<line x1="940.0" x2="940.0" y1="198" y2="210" />
</g>
</g>
<text fill="hsl(240, 100%, 40%)" y="242">univariate.x * exp ((x * x) + 1).primops 455  ns</text>
<g>
<title>455  ns ±  44 ns</title>
<rect y="248" rx="5" height="22" width="247.72016211902292" fill="hsl(240, 100%, 80%)" stroke="hsl(240, 100%, 55%)" />
<g stroke="hsl(240, 100%, 40%)"><line x1="224.00604150112525" x2="271.4342827369206" y1="259" y2="259" />
<line x1="224.00604150112525" x2="224.00604150112525" y1="253" y2="265" />
<line x1="271.4342827369206" x2="271.4342827369206" y1="253" y2="265" />
</g>
</g>
<text fill="hsl(300, 100%, 40%)" y="297">univariate.x * exp ((x * x) + 1).primops/Double 372  ns</text>
<g>
<title>372  ns ±  33 ns</title>
<rect y="303" rx="5" height="22" width="202.7702230034908" fill="hsl(300, 100%, 80%)" stroke="hsl(300, 100%, 55%)" />
<g stroke="hsl(300, 100%, 40%)"><line x1="184.61198829951798" x2="220.92845770746362" y1="314" y2="314" />
<line x1="184.61198829951798" x2="184.61198829951798" y1="308" y2="320" />
<line x1="220.92845770746362" x2="220.92845770746362" y1="308" y2="320" />
</g>
</g>
</g>
</svg>
