<svg xmlns="http://www.w3.org/2000/svg" height="337" width="960.0" font-size="16" font-family="sans-serif" stroke-width="2">
<g transform="translate(10.0 0)">
<g fill="hsl(0, 100%, 40%)">
<text y="22">4-ary.((x * y) * z) * w.transformers</text>
<text y="22" x="458.3272558403972" text-anchor="end">1.59 μs</text>
</g>
<g>
<title>1.59 μs ±  87 ns</title>
<rect y="28" rx="5" height="22" width="458.3272558403972" fill="hsl(0, 100%, 80%)" stroke="hsl(0, 100%, 55%)" />
<g stroke="hsl(0, 100%, 40%)"><line x1="433.21953962991006" x2="483.4349720508843" y1="39" y2="39" />
<line x1="433.21953962991006" x2="433.21953962991006" y1="33" y2="45" />
<line x1="483.4349720508843" x2="483.4349720508843" y1="33" y2="45" />
</g>
</g>
<g fill="hsl(60, 100%, 40%)">
<text y="77">4-ary.((x * y) * z) * w.ad</text>
<text y="77" x="753.620213055337" text-anchor="end">2.62 μs</text>
</g>
<g>
<title>2.62 μs ± 238 ns</title>
<rect y="83" rx="5" height="22" width="753.620213055337" fill="hsl(60, 100%, 80%)" stroke="hsl(60, 100%, 55%)" />
<g stroke="hsl(60, 100%, 40%)"><line x1="685.2331012613248" x2="822.0073248493492" y1="94" y2="94" />
<line x1="685.2331012613248" x2="685.2331012613248" y1="88" y2="100" />
<line x1="822.0073248493492" x2="822.0073248493492" y1="88" y2="100" />
</g>
</g>
<g fill="hsl(120, 100%, 40%)">
<text y="132">4-ary.((x * y) * z) * w.ad/double</text>
<text y="132" x="752.7710610861558" text-anchor="end">2.61 μs</text>
</g>
<g>
<title>2.61 μs ± 212 ns</title>
<rect y="138" rx="5" height="22" width="752.7710610861558" fill="hsl(120, 100%, 80%)" stroke="hsl(120, 100%, 55%)" />
<g stroke="hsl(120, 100%, 40%)"><line x1="691.8382884505578" x2="813.7038337217538" y1="149" y2="149" />
<line x1="691.8382884505578" x2="691.8382884505578" y1="143" y2="155" />
<line x1="813.7038337217538" x2="813.7038337217538" y1="143" y2="155" />
</g>
</g>
<g fill="hsl(180, 100%, 40%)">
<text y="187">4-ary.((x * y) * z) * w.backprop</text>
<text y="187" x="878.6664069028557" text-anchor="end">3.05 μs</text>
</g>
<g>
<title>3.05 μs ± 213 ns</title>
<rect y="193" rx="5" height="22" width="878.6664069028557" fill="hsl(180, 100%, 80%)" stroke="hsl(180, 100%, 55%)" />
<g stroke="hsl(180, 100%, 40%)"><line x1="817.3328138057113" x2="940.0" y1="204" y2="204" />
<line x1="817.3328138057113" x2="817.3328138057113" y1="198" y2="210" />
<line x1="940.0" x2="940.0" y1="198" y2="210" />
</g>
</g>
<text fill="hsl(240, 100%, 40%)" y="242">4-ary.((x * y) * z) * w.primops 393  ns</text>
<g>
<title>393  ns ±  27 ns</title>
<rect y="248" rx="5" height="22" width="113.03223399328044" fill="hsl(240, 100%, 80%)" stroke="hsl(240, 100%, 55%)" />
<g stroke="hsl(240, 100%, 40%)"><line x1="105.17592259038432" x2="120.88854539617657" y1="259" y2="259" />
<line x1="105.17592259038432" x2="105.17592259038432" y1="253" y2="265" />
<line x1="120.88854539617657" x2="120.88854539617657" y1="253" y2="265" />
</g>
</g>
<text fill="hsl(300, 100%, 40%)" y="297">4-ary.((x * y) * z) * w.primops/double 260  ns</text>
<g>
<title>260  ns ±  12 ns</title>
<rect y="303" rx="5" height="22" width="74.81521235691548" fill="hsl(300, 100%, 80%)" stroke="hsl(300, 100%, 55%)" />
<g stroke="hsl(300, 100%, 40%)"><line x1="71.26714502417519" x2="78.36327968965577" y1="314" y2="314" />
<line x1="71.26714502417519" x2="71.26714502417519" y1="308" y2="320" />
<line x1="78.36327968965577" x2="78.36327968965577" y1="308" y2="320" />
</g>
</g>
</g>
</svg>
