<svg xmlns="http://www.w3.org/2000/svg" height="337" width="960.0" font-size="16" font-family="sans-serif" stroke-width="2">
<g transform="translate(10.0 0)">
<g fill="hsl(0, 100%, 40%)">
<text y="22">4-ary.((x * y) * z) * w.transformers</text>
<text y="22" x="463.06102908009393" text-anchor="end">1.63 μs</text>
</g>
<g>
<title>1.63 μs ± 103 ns</title>
<rect y="28" rx="5" height="22" width="463.06102908009393" fill="hsl(0, 100%, 80%)" stroke="hsl(0, 100%, 55%)" />
<g stroke="hsl(0, 100%, 40%)"><line x1="433.7564215780148" x2="492.36563658217307" y1="39" y2="39" />
<line x1="433.7564215780148" x2="433.7564215780148" y1="33" y2="45" />
<line x1="492.36563658217307" x2="492.36563658217307" y1="33" y2="45" />
</g>
</g>
<g fill="hsl(60, 100%, 40%)">
<text y="77">4-ary.((x * y) * z) * w.ad</text>
<text y="77" x="739.3902144242082" text-anchor="end">2.60 μs</text>
</g>
<g>
<title>2.60 μs ± 211 ns</title>
<rect y="83" rx="5" height="22" width="739.3902144242082" fill="hsl(60, 100%, 80%)" stroke="hsl(60, 100%, 55%)" />
<g stroke="hsl(60, 100%, 40%)"><line x1="679.4501093192258" x2="799.3303195291907" y1="94" y2="94" />
<line x1="679.4501093192258" x2="679.4501093192258" y1="88" y2="100" />
<line x1="799.3303195291907" x2="799.3303195291907" y1="88" y2="100" />
</g>
</g>
<g fill="hsl(120, 100%, 40%)">
<text y="132">4-ary.((x * y) * z) * w.ad/double</text>
<text y="132" x="749.3525524609759" text-anchor="end">2.64 μs</text>
</g>
<g>
<title>2.64 μs ± 192 ns</title>
<rect y="138" rx="5" height="22" width="749.3525524609759" fill="hsl(120, 100%, 80%)" stroke="hsl(120, 100%, 55%)" />
<g stroke="hsl(120, 100%, 40%)"><line x1="694.7308889512101" x2="803.9742159707416" y1="149" y2="149" />
<line x1="694.7308889512101" x2="694.7308889512101" y1="143" y2="155" />
<line x1="803.9742159707416" x2="803.9742159707416" y1="143" y2="155" />
</g>
</g>
<g fill="hsl(180, 100%, 40%)">
<text y="187">4-ary.((x * y) * z) * w.backprop</text>
<text y="187" x="890.9612498362557" text-anchor="end">3.13 μs</text>
</g>
<g>
<title>3.13 μs ± 172 ns</title>
<rect y="193" rx="5" height="22" width="890.9612498362557" fill="hsl(180, 100%, 80%)" stroke="hsl(180, 100%, 55%)" />
<g stroke="hsl(180, 100%, 40%)"><line x1="841.9224996725113" x2="940.0" y1="204" y2="204" />
<line x1="841.9224996725113" x2="841.9224996725113" y1="198" y2="210" />
<line x1="940.0" x2="940.0" y1="198" y2="210" />
</g>
</g>
<text fill="hsl(240, 100%, 40%)" y="242">4-ary.((x * y) * z) * w.primops 392  ns</text>
<g>
<title>392  ns ±  26 ns</title>
<rect y="248" rx="5" height="22" width="111.39009825267732" fill="hsl(240, 100%, 80%)" stroke="hsl(240, 100%, 55%)" />
<g stroke="hsl(240, 100%, 40%)"><line x1="104.03550855449035" x2="118.74468795086429" y1="259" y2="259" />
<line x1="104.03550855449035" x2="104.03550855449035" y1="253" y2="265" />
<line x1="118.74468795086429" x2="118.74468795086429" y1="253" y2="265" />
</g>
</g>
<text fill="hsl(300, 100%, 40%)" y="297">4-ary.((x * y) * z) * w.primops/double 259  ns</text>
<g>
<title>259  ns ±  13 ns</title>
<rect y="303" rx="5" height="22" width="73.63775114908468" fill="hsl(300, 100%, 80%)" stroke="hsl(300, 100%, 55%)" />
<g stroke="hsl(300, 100%, 40%)"><line x1="69.90329627643015" x2="77.3722060217392" y1="314" y2="314" />
<line x1="69.90329627643015" x2="69.90329627643015" y1="308" y2="320" />
<line x1="77.3722060217392" x2="77.3722060217392" y1="308" y2="320" />
</g>
</g>
</g>
</svg>
