<svg xmlns="http://www.w3.org/2000/svg" height="337" width="960.0" font-size="16" font-family="sans-serif" stroke-width="2">
<g transform="translate(10.0 0)">
<text fill="hsl(0, 100%, 40%)" y="22">4-ary.((x + w) ^ 4) * exp (x + (cos ((y ^ 2) * sin z) * w)).transformers 4.15 μs</text>
<g>
<title>4.15 μs ± 211 ns</title>
<rect y="28" rx="5" height="22" width="611.462006691356" fill="hsl(0, 100%, 80%)" stroke="hsl(0, 100%, 55%)" />
<g stroke="hsl(0, 100%, 40%)"><line x1="580.3453560595933" x2="642.5786573231187" y1="39" y2="39" />
<line x1="580.3453560595933" x2="580.3453560595933" y1="33" y2="45" />
<line x1="642.5786573231187" x2="642.5786573231187" y1="33" y2="45" />
</g>
</g>
<g fill="hsl(60, 100%, 40%)">
<text y="77">4-ary.((x + w) ^ 4) * exp (x + (cos ((y ^ 2) * sin z) * w)).ad</text>
<text y="77" x="635.9829019598983" text-anchor="end">4.31 μs</text>
</g>
<g>
<title>4.31 μs ± 191 ns</title>
<rect y="83" rx="5" height="22" width="635.9829019598983" fill="hsl(60, 100%, 80%)" stroke="hsl(60, 100%, 55%)" />
<g stroke="hsl(60, 100%, 40%)"><line x1="607.7486680988252" x2="664.2171358209714" y1="94" y2="94" />
<line x1="607.7486680988252" x2="607.7486680988252" y1="88" y2="100" />
<line x1="664.2171358209714" x2="664.2171358209714" y1="88" y2="100" />
</g>
</g>
<text fill="hsl(120, 100%, 40%)" y="132">4-ary.((x + w) ^ 4) * exp (x + (cos ((y ^ 2) * sin z) * w)).ad/double 3.94 μs</text>
<g>
<title>3.94 μs ± 380 ns</title>
<rect y="138" rx="5" height="22" width="580.7646515405119" fill="hsl(120, 100%, 80%)" stroke="hsl(120, 100%, 55%)" />
<g stroke="hsl(120, 100%, 40%)"><line x1="524.671086777386" x2="636.8582163036377" y1="149" y2="149" />
<line x1="524.671086777386" x2="524.671086777386" y1="143" y2="155" />
<line x1="636.8582163036377" x2="636.8582163036377" y1="143" y2="155" />
</g>
</g>
<g fill="hsl(180, 100%, 40%)">
<text y="187">4-ary.((x + w) ^ 4) * exp (x + (cos ((y ^ 2) * sin z) * w)).backprop</text>
<text y="187" x="890.1429208879885" text-anchor="end">6.04 μs</text>
</g>
<g>
<title>6.04 μs ± 338 ns</title>
<rect y="193" rx="5" height="22" width="890.1429208879885" fill="hsl(180, 100%, 80%)" stroke="hsl(180, 100%, 55%)" />
<g stroke="hsl(180, 100%, 40%)"><line x1="840.2858417759769" x2="940.0" y1="204" y2="204" />
<line x1="840.2858417759769" x2="840.2858417759769" y1="198" y2="210" />
<line x1="940.0" x2="940.0" y1="198" y2="210" />
</g>
</g>
<text fill="hsl(240, 100%, 40%)" y="242">4-ary.((x + w) ^ 4) * exp (x + (cos ((y ^ 2) * sin z) * w)).primops 1.75 μs</text>
<g>
<title>1.75 μs ±  93 ns</title>
<rect y="248" rx="5" height="22" width="258.23528193503324" fill="hsl(240, 100%, 80%)" stroke="hsl(240, 100%, 55%)" />
<g stroke="hsl(240, 100%, 40%)"><line x1="244.4691756427612" x2="272.0013882273053" y1="259" y2="259" />
<line x1="244.4691756427612" x2="244.4691756427612" y1="253" y2="265" />
<line x1="272.0013882273053" x2="272.0013882273053" y1="253" y2="265" />
</g>
</g>
<text fill="hsl(300, 100%, 40%)" y="297">4-ary.((x + w) ^ 4) * exp (x + (cos ((y ^ 2) * sin z) * w)).primops/double 1.14 μs</text>
<g>
<title>1.14 μs ±  82 ns</title>
<rect y="303" rx="5" height="22" width="167.57395354208205" fill="hsl(300, 100%, 80%)" stroke="hsl(300, 100%, 55%)" />
<g stroke="hsl(300, 100%, 40%)"><line x1="155.48473420656094" x2="179.66317287760316" y1="314" y2="314" />
<line x1="155.48473420656094" x2="155.48473420656094" y1="308" y2="320" />
<line x1="179.66317287760316" x2="179.66317287760316" y1="308" y2="320" />
</g>
</g>
</g>
</svg>
