<svg xmlns="http://www.w3.org/2000/svg" height="337" width="960.0" font-size="16" font-family="sans-serif" stroke-width="2">
<g transform="translate(10.0 0)">
<text fill="hsl(0, 100%, 40%)" y="22">4-ary.((x + w) ^ 4) * exp (x + (cos ((y ^ 2) * sin z) * w)).transformers 4.08 μs</text>
<g>
<title>4.08 μs ± 209 ns</title>
<rect y="28" rx="5" height="22" width="607.9092624216077" fill="hsl(0, 100%, 80%)" stroke="hsl(0, 100%, 55%)" />
<g stroke="hsl(0, 100%, 40%)"><line x1="576.7628876742158" x2="639.0556371689995" y1="39" y2="39" />
<line x1="576.7628876742158" x2="576.7628876742158" y1="33" y2="45" />
<line x1="639.0556371689995" x2="639.0556371689995" y1="33" y2="45" />
</g>
</g>
<g fill="hsl(60, 100%, 40%)">
<text y="77">4-ary.((x + w) ^ 4) * exp (x + (cos ((y ^ 2) * sin z) * w)).ad</text>
<text y="77" x="642.8448706571912" text-anchor="end">4.31 μs</text>
</g>
<g>
<title>4.31 μs ± 317 ns</title>
<rect y="83" rx="5" height="22" width="642.8448706571912" fill="hsl(60, 100%, 80%)" stroke="hsl(60, 100%, 55%)" />
<g stroke="hsl(60, 100%, 40%)"><line x1="595.5148731180229" x2="690.1748681963595" y1="94" y2="94" />
<line x1="595.5148731180229" x2="595.5148731180229" y1="88" y2="100" />
<line x1="690.1748681963595" x2="690.1748681963595" y1="88" y2="100" />
</g>
</g>
<text fill="hsl(120, 100%, 40%)" y="132">4-ary.((x + w) ^ 4) * exp (x + (cos ((y ^ 2) * sin z) * w)).ad/double 3.89 μs</text>
<g>
<title>3.89 μs ± 259 ns</title>
<rect y="138" rx="5" height="22" width="579.7214040163757" fill="hsl(120, 100%, 80%)" stroke="hsl(120, 100%, 55%)" />
<g stroke="hsl(120, 100%, 40%)"><line x1="541.0535342764035" x2="618.3892737563478" y1="149" y2="149" />
<line x1="541.0535342764035" x2="541.0535342764035" y1="143" y2="155" />
<line x1="618.3892737563478" x2="618.3892737563478" y1="143" y2="155" />
</g>
</g>
<g fill="hsl(180, 100%, 40%)">
<text y="187">4-ary.((x + w) ^ 4) * exp (x + (cos ((y ^ 2) * sin z) * w)).backprop</text>
<text y="187" x="880.1313935019127" text-anchor="end">5.90 μs</text>
</g>
<g>
<title>5.90 μs ± 401 ns</title>
<rect y="193" rx="5" height="22" width="880.1313935019127" fill="hsl(180, 100%, 80%)" stroke="hsl(180, 100%, 55%)" />
<g stroke="hsl(180, 100%, 40%)"><line x1="820.2627870038255" x2="940.0" y1="204" y2="204" />
<line x1="820.2627870038255" x2="820.2627870038255" y1="198" y2="210" />
<line x1="940.0" x2="940.0" y1="198" y2="210" />
</g>
</g>
<text fill="hsl(240, 100%, 40%)" y="242">4-ary.((x + w) ^ 4) * exp (x + (cos ((y ^ 2) * sin z) * w)).primops 1.73 μs</text>
<g>
<title>1.73 μs ± 164 ns</title>
<rect y="248" rx="5" height="22" width="257.94468348483605" fill="hsl(240, 100%, 80%)" stroke="hsl(240, 100%, 55%)" />
<g stroke="hsl(240, 100%, 40%)"><line x1="233.51861656512628" x2="282.37075040454584" y1="259" y2="259" />
<line x1="233.51861656512628" x2="233.51861656512628" y1="253" y2="265" />
<line x1="282.37075040454584" x2="282.37075040454584" y1="253" y2="265" />
</g>
</g>
<text fill="hsl(300, 100%, 40%)" y="297">4-ary.((x + w) ^ 4) * exp (x + (cos ((y ^ 2) * sin z) * w)).primops/double 1.12 μs</text>
<g>
<title>1.12 μs ±  89 ns</title>
<rect y="303" rx="5" height="22" width="166.52776638503815" fill="hsl(300, 100%, 80%)" stroke="hsl(300, 100%, 55%)" />
<g stroke="hsl(300, 100%, 40%)"><line x1="153.3034056420161" x2="179.7521271280602" y1="314" y2="314" />
<line x1="153.3034056420161" x2="153.3034056420161" y1="308" y2="320" />
<line x1="179.7521271280602" x2="179.7521271280602" y1="308" y2="320" />
</g>
</g>
</g>
</svg>
