<svg xmlns="http://www.w3.org/2000/svg" height="337" width="960.0" font-size="16" font-family="sans-serif" stroke-width="2">
<g transform="translate(10.0 0)">
<text fill="hsl(0, 100%, 40%)" y="22">4-ary.(log ((x ^ 2) + w) / (log (x + w) ^ 4)) * exp (x + (cos ((y ^ 2) * sin z) * w)).transformers 6.34 μs</text>
<g>
<title>6.34 μs ± 371 ns</title>
<rect y="28" rx="5" height="22" width="722.6128076843389" fill="hsl(0, 100%, 80%)" stroke="hsl(0, 100%, 55%)" />
<g stroke="hsl(0, 100%, 40%)"><line x1="680.3209514784425" x2="764.9046638902354" y1="39" y2="39" />
<line x1="680.3209514784425" x2="680.3209514784425" y1="33" y2="45" />
<line x1="764.9046638902354" x2="764.9046638902354" y1="33" y2="45" />
</g>
</g>
<text fill="hsl(60, 100%, 40%)" y="77">4-ary.(log ((x ^ 2) + w) / (log (x + w) ^ 4)) * exp (x + (cos ((y ^ 2) * sin z) * w)).ad 5.71 μs</text>
<g>
<title>5.71 μs ± 362 ns</title>
<rect y="83" rx="5" height="22" width="651.6085469637575" fill="hsl(60, 100%, 80%)" stroke="hsl(60, 100%, 55%)" />
<g stroke="hsl(60, 100%, 40%)"><line x1="610.3700703424056" x2="692.8470235851094" y1="94" y2="94" />
<line x1="610.3700703424056" x2="610.3700703424056" y1="88" y2="100" />
<line x1="692.8470235851094" x2="692.8470235851094" y1="88" y2="100" />
</g>
</g>
<text fill="hsl(120, 100%, 40%)" y="132">4-ary.(log ((x ^ 2) + w) / (log (x + w) ^ 4)) * exp (x + (cos ((y ^ 2) * sin z) * w)).ad/double 4.82 μs</text>
<g>
<title>4.82 μs ± 343 ns</title>
<rect y="138" rx="5" height="22" width="549.0966287369857" fill="hsl(120, 100%, 80%)" stroke="hsl(120, 100%, 55%)" />
<g stroke="hsl(120, 100%, 40%)"><line x1="510.00185596813844" x2="588.191401505833" y1="149" y2="149" />
<line x1="510.00185596813844" x2="510.00185596813844" y1="143" y2="155" />
<line x1="588.191401505833" x2="588.191401505833" y1="143" y2="155" />
</g>
</g>
<g fill="hsl(180, 100%, 40%)">
<text y="187">4-ary.(log ((x ^ 2) + w) / (log (x + w) ^ 4)) * exp (x + (cos ((y ^ 2) * sin z) * w)).backprop</text>
<text y="187" x="898.2137386282527" text-anchor="end">7.88 μs</text>
</g>
<g>
<title>7.88 μs ± 366 ns</title>
<rect y="193" rx="5" height="22" width="898.2137386282527" fill="hsl(180, 100%, 80%)" stroke="hsl(180, 100%, 55%)" />
<g stroke="hsl(180, 100%, 40%)"><line x1="856.4274772565054" x2="940.0" y1="204" y2="204" />
<line x1="856.4274772565054" x2="856.4274772565054" y1="198" y2="210" />
<line x1="940.0" x2="940.0" y1="198" y2="210" />
</g>
</g>
<text fill="hsl(240, 100%, 40%)" y="242">4-ary.(log ((x ^ 2) + w) / (log (x + w) ^ 4)) * exp (x + (cos ((y ^ 2) * sin z) * w)).primops 2.64 μs</text>
<g>
<title>2.64 μs ± 198 ns</title>
<rect y="248" rx="5" height="22" width="300.9166129285042" fill="hsl(240, 100%, 80%)" stroke="hsl(240, 100%, 55%)" />
<g stroke="hsl(240, 100%, 40%)"><line x1="278.3696375257834" x2="323.463588331225" y1="259" y2="259" />
<line x1="278.3696375257834" x2="278.3696375257834" y1="253" y2="265" />
<line x1="323.463588331225" x2="323.463588331225" y1="253" y2="265" />
</g>
</g>
<text fill="hsl(300, 100%, 40%)" y="297">4-ary.(log ((x ^ 2) + w) / (log (x + w) ^ 4)) * exp (x + (cos ((y ^ 2) * sin z) * w)).primops/double 1.81 μs</text>
<g>
<title>1.81 μs ± 179 ns</title>
<rect y="303" rx="5" height="22" width="206.2598869727534" fill="hsl(300, 100%, 80%)" stroke="hsl(300, 100%, 55%)" />
<g stroke="hsl(300, 100%, 40%)"><line x1="185.80872416625786" x2="226.71104977924895" y1="314" y2="314" />
<line x1="185.80872416625786" x2="185.80872416625786" y1="308" y2="320" />
<line x1="226.71104977924895" x2="226.71104977924895" y1="308" y2="320" />
</g>
</g>
</g>
</svg>
