<svg xmlns="http://www.w3.org/2000/svg" height="337" width="960.0" font-size="16" font-family="sans-serif" stroke-width="2">
<g transform="translate(10.0 0)">
<text fill="hsl(0, 100%, 40%)" y="22">4-ary.(logBase ((x ^ 2) + w) ((cos ((x ^ 2) + (2 * z)) + w) + 1) ^ 4) * exp (x + ((sin (pi * x) * cos ((exp y ^ 2) * sin z)) * w)).transformers 13.3 μs</text>
<g>
<title>13.3 μs ± 924 ns</title>
<rect y="28" rx="5" height="22" width="879.0557638751221" fill="hsl(0, 100%, 80%)" stroke="hsl(0, 100%, 55%)" />
<g stroke="hsl(0, 100%, 40%)"><line x1="818.1115277502442" x2="940.0" y1="39" y2="39" />
<line x1="818.1115277502442" x2="818.1115277502442" y1="33" y2="45" />
<line x1="940.0" x2="940.0" y1="33" y2="45" />
</g>
</g>
<text fill="hsl(60, 100%, 40%)" y="77">4-ary.(logBase ((x ^ 2) + w) ((cos ((x ^ 2) + (2 * z)) + w) + 1) ^ 4) * exp (x + ((sin (pi * x) * cos ((exp y ^ 2) * sin z)) * w)).ad 7.73 μs</text>
<g>
<title>7.73 μs ± 755 ns</title>
<rect y="83" rx="5" height="22" width="509.8418247034371" fill="hsl(60, 100%, 80%)" stroke="hsl(60, 100%, 55%)" />
<g stroke="hsl(60, 100%, 40%)"><line x1="460.00282200161627" x2="559.680827405258" y1="94" y2="94" />
<line x1="460.00282200161627" x2="460.00282200161627" y1="88" y2="100" />
<line x1="559.680827405258" x2="559.680827405258" y1="88" y2="100" />
</g>
</g>
<text fill="hsl(120, 100%, 40%)" y="132">4-ary.(logBase ((x ^ 2) + w) ((cos ((x ^ 2) + (2 * z)) + w) + 1) ^ 4) * exp (x + ((sin (pi * x) * cos ((exp y ^ 2) * sin z)) * w)).ad/double 6.19 μs</text>
<g>
<title>6.19 μs ± 333 ns</title>
<rect y="138" rx="5" height="22" width="408.43033811791304" fill="hsl(120, 100%, 80%)" stroke="hsl(120, 100%, 55%)" />
<g stroke="hsl(120, 100%, 40%)"><line x1="386.44317162655676" x2="430.4175046092693" y1="149" y2="149" />
<line x1="386.44317162655676" x2="386.44317162655676" y1="143" y2="155" />
<line x1="430.4175046092693" x2="430.4175046092693" y1="143" y2="155" />
</g>
</g>
<text fill="hsl(180, 100%, 40%)" y="187">4-ary.(logBase ((x ^ 2) + w) ((cos ((x ^ 2) + (2 * z)) + w) + 1) ^ 4) * exp (x + ((sin (pi * x) * cos ((exp y ^ 2) * sin z)) * w)).backprop 11.3 μs</text>
<g>
<title>11.3 μs ± 924 ns</title>
<rect y="193" rx="5" height="22" width="744.2874670555881" fill="hsl(180, 100%, 80%)" stroke="hsl(180, 100%, 55%)" />
<g stroke="hsl(180, 100%, 40%)"><line x1="683.2942685006775" x2="805.2806656104987" y1="204" y2="204" />
<line x1="683.2942685006775" x2="683.2942685006775" y1="198" y2="210" />
<line x1="805.2806656104987" x2="805.2806656104987" y1="198" y2="210" />
</g>
</g>
<text fill="hsl(240, 100%, 40%)" y="242">4-ary.(logBase ((x ^ 2) + w) ((cos ((x ^ 2) + (2 * z)) + w) + 1) ^ 4) * exp (x + ((sin (pi * x) * cos ((exp y ^ 2) * sin z)) * w)).primops 7.72 μs</text>
<g>
<title>7.72 μs ± 367 ns</title>
<rect y="248" rx="5" height="22" width="509.5691000089293" fill="hsl(240, 100%, 80%)" stroke="hsl(240, 100%, 55%)" />
<g stroke="hsl(240, 100%, 40%)"><line x1="485.32187525798145" x2="533.8163247598771" y1="259" y2="259" />
<line x1="485.32187525798145" x2="485.32187525798145" y1="253" y2="265" />
<line x1="533.8163247598771" x2="533.8163247598771" y1="253" y2="265" />
</g>
</g>
<text fill="hsl(300, 100%, 40%)" y="297">4-ary.(logBase ((x ^ 2) + w) ((cos ((x ^ 2) + (2 * z)) + w) + 1) ^ 4) * exp (x + ((sin (pi * x) * cos ((exp y ^ 2) * sin z)) * w)).primops/double 5.24 μs</text>
<g>
<title>5.24 μs ± 404 ns</title>
<rect y="303" rx="5" height="22" width="345.749981327054" fill="hsl(300, 100%, 80%)" stroke="hsl(300, 100%, 55%)" />
<g stroke="hsl(300, 100%, 40%)"><line x1="319.10003420097485" x2="372.39992845313316" y1="314" y2="314" />
<line x1="319.10003420097485" x2="319.10003420097485" y1="308" y2="320" />
<line x1="372.39992845313316" x2="372.39992845313316" y1="308" y2="320" />
</g>
</g>
</g>
</svg>
