<svg xmlns="http://www.w3.org/2000/svg" height="337" width="960.0" font-size="16" font-family="sans-serif" stroke-width="2">
<g transform="translate(10.0 0)">
<text fill="hsl(0, 100%, 40%)" y="22">4-ary.(logBase ((x ^ 2) + w) ((cos ((x ^ 2) + (2 * z)) + w) + 1) ^ 4) * exp (x + ((sin (pi * x) * cos ((exp y ^ 2) * sin z)) * w)).transformers 13.0 μs</text>
<g>
<title>13.0 μs ± 703 ns</title>
<rect y="28" rx="5" height="22" width="891.9339646960161" fill="hsl(0, 100%, 80%)" stroke="hsl(0, 100%, 55%)" />
<g stroke="hsl(0, 100%, 40%)"><line x1="843.8679293920322" x2="940.0" y1="39" y2="39" />
<line x1="843.8679293920322" x2="843.8679293920322" y1="33" y2="45" />
<line x1="940.0" x2="940.0" y1="33" y2="45" />
</g>
</g>
<text fill="hsl(60, 100%, 40%)" y="77">4-ary.(logBase ((x ^ 2) + w) ((cos ((x ^ 2) + (2 * z)) + w) + 1) ^ 4) * exp (x + ((sin (pi * x) * cos ((exp y ^ 2) * sin z)) * w)).ad 7.47 μs</text>
<g>
<title>7.47 μs ± 740 ns</title>
<rect y="83" rx="5" height="22" width="510.2998125603405" fill="hsl(60, 100%, 80%)" stroke="hsl(60, 100%, 55%)" />
<g stroke="hsl(60, 100%, 40%)"><line x1="459.69487700076763" x2="560.9047481199134" y1="94" y2="94" />
<line x1="459.69487700076763" x2="459.69487700076763" y1="88" y2="100" />
<line x1="560.9047481199134" x2="560.9047481199134" y1="88" y2="100" />
</g>
</g>
<text fill="hsl(120, 100%, 40%)" y="132">4-ary.(logBase ((x ^ 2) + w) ((cos ((x ^ 2) + (2 * z)) + w) + 1) ^ 4) * exp (x + ((sin (pi * x) * cos ((exp y ^ 2) * sin z)) * w)).ad/double 6.13 μs</text>
<g>
<title>6.13 μs ± 336 ns</title>
<rect y="138" rx="5" height="22" width="419.1641341552261" fill="hsl(120, 100%, 80%)" stroke="hsl(120, 100%, 55%)" />
<g stroke="hsl(120, 100%, 40%)"><line x1="396.1715844035835" x2="442.15668390686875" y1="149" y2="149" />
<line x1="396.1715844035835" x2="396.1715844035835" y1="143" y2="155" />
<line x1="442.15668390686875" x2="442.15668390686875" y1="143" y2="155" />
</g>
</g>
<text fill="hsl(180, 100%, 40%)" y="187">4-ary.(logBase ((x ^ 2) + w) ((cos ((x ^ 2) + (2 * z)) + w) + 1) ^ 4) * exp (x + ((sin (pi * x) * cos ((exp y ^ 2) * sin z)) * w)).backprop 11.0 μs</text>
<g>
<title>11.0 μs ± 755 ns</title>
<rect y="193" rx="5" height="22" width="752.8321145792453" fill="hsl(180, 100%, 80%)" stroke="hsl(180, 100%, 55%)" />
<g stroke="hsl(180, 100%, 40%)"><line x1="701.2018854639479" x2="804.4623436945427" y1="204" y2="204" />
<line x1="701.2018854639479" x2="701.2018854639479" y1="198" y2="210" />
<line x1="804.4623436945427" x2="804.4623436945427" y1="198" y2="210" />
</g>
</g>
<text fill="hsl(240, 100%, 40%)" y="242">4-ary.(logBase ((x ^ 2) + w) ((cos ((x ^ 2) + (2 * z)) + w) + 1) ^ 4) * exp (x + ((sin (pi * x) * cos ((exp y ^ 2) * sin z)) * w)).primops 6.73 μs</text>
<g>
<title>6.73 μs ± 426 ns</title>
<rect y="248" rx="5" height="22" width="460.3080708999947" fill="hsl(240, 100%, 80%)" stroke="hsl(240, 100%, 55%)" />
<g stroke="hsl(240, 100%, 40%)"><line x1="431.21898896020616" x2="489.3971528397832" y1="259" y2="259" />
<line x1="431.21898896020616" x2="431.21898896020616" y1="253" y2="265" />
<line x1="489.3971528397832" x2="489.3971528397832" y1="253" y2="265" />
</g>
</g>
<text fill="hsl(300, 100%, 40%)" y="297">4-ary.(logBase ((x ^ 2) + w) ((cos ((x ^ 2) + (2 * z)) + w) + 1) ^ 4) * exp (x + ((sin (pi * x) * cos ((exp y ^ 2) * sin z)) * w)).primops/double 4.46 μs</text>
<g>
<title>4.46 μs ± 391 ns</title>
<rect y="303" rx="5" height="22" width="304.5141682844127" fill="hsl(300, 100%, 80%)" stroke="hsl(300, 100%, 55%)" />
<g stroke="hsl(300, 100%, 40%)"><line x1="277.75578365549734" x2="331.272552913328" y1="314" y2="314" />
<line x1="277.75578365549734" x2="277.75578365549734" y1="308" y2="320" />
<line x1="331.272552913328" x2="331.272552913328" y1="308" y2="320" />
</g>
</g>
</g>
</svg>
