<svg xmlns="http://www.w3.org/2000/svg" height="337" width="960.0" font-size="16" font-family="sans-serif" stroke-width="2">
<g transform="translate(10.0 0)">
<text fill="hsl(0, 100%, 40%)" y="22">4-ary.(logBase ((x ^ 2) + tanh w) ((cos ((x ^ 2) + (2 * z)) + w) + 1) ^ 4) + exp (x + ((sin ((pi * x) + (w ^ 2)) * (cosh ((exp y ^ 2) * sin z) ^ 2)) * (w + 1))).transformers 17.2 μs</text>
<g>
<title>17.2 μs ± 722 ns</title>
<rect y="28" rx="5" height="22" width="902.0518801458118" fill="hsl(0, 100%, 80%)" stroke="hsl(0, 100%, 55%)" />
<g stroke="hsl(0, 100%, 40%)"><line x1="864.1037602916235" x2="940.0" y1="39" y2="39" />
<line x1="864.1037602916235" x2="864.1037602916235" y1="33" y2="45" />
<line x1="940.0" x2="940.0" y1="33" y2="45" />
</g>
</g>
<text fill="hsl(60, 100%, 40%)" y="77">4-ary.(logBase ((x ^ 2) + tanh w) ((cos ((x ^ 2) + (2 * z)) + w) + 1) ^ 4) + exp (x + ((sin ((pi * x) + (w ^ 2)) * (cosh ((exp y ^ 2) * sin z) ^ 2)) * (w + 1))).ad 8.61 μs</text>
<g>
<title>8.61 μs ± 711 ns</title>
<rect y="83" rx="5" height="22" width="452.41715641926453" fill="hsl(60, 100%, 80%)" stroke="hsl(60, 100%, 55%)" />
<g stroke="hsl(60, 100%, 40%)"><line x1="415.0622172951035" x2="489.77209554342556" y1="94" y2="94" />
<line x1="415.0622172951035" x2="415.0622172951035" y1="88" y2="100" />
<line x1="489.77209554342556" x2="489.77209554342556" y1="88" y2="100" />
</g>
</g>
<text fill="hsl(120, 100%, 40%)" y="132">4-ary.(logBase ((x ^ 2) + tanh w) ((cos ((x ^ 2) + (2 * z)) + w) + 1) ^ 4) + exp (x + ((sin ((pi * x) + (w ^ 2)) * (cosh ((exp y ^ 2) * sin z) ^ 2)) * (w + 1))).ad/double 6.83 μs</text>
<g>
<title>6.83 μs ± 656 ns</title>
<rect y="138" rx="5" height="22" width="359.02796969605845" fill="hsl(120, 100%, 80%)" stroke="hsl(120, 100%, 55%)" />
<g stroke="hsl(120, 100%, 40%)"><line x1="324.5400532535733" x2="393.5158861385436" y1="149" y2="149" />
<line x1="324.5400532535733" x2="324.5400532535733" y1="143" y2="155" />
<line x1="393.5158861385436" x2="393.5158861385436" y1="143" y2="155" />
</g>
</g>
<text fill="hsl(180, 100%, 40%)" y="187">4-ary.(logBase ((x ^ 2) + tanh w) ((cos ((x ^ 2) + (2 * z)) + w) + 1) ^ 4) + exp (x + ((sin ((pi * x) + (w ^ 2)) * (cosh ((exp y ^ 2) * sin z) ^ 2)) * (w + 1))).backprop 13.7 μs</text>
<g>
<title>13.7 μs ± 1.3 μs</title>
<rect y="193" rx="5" height="22" width="720.7911908363342" fill="hsl(180, 100%, 80%)" stroke="hsl(180, 100%, 55%)" />
<g stroke="hsl(180, 100%, 40%)"><line x1="650.9617871683682" x2="790.6205945043001" y1="204" y2="204" />
<line x1="650.9617871683682" x2="650.9617871683682" y1="198" y2="210" />
<line x1="790.6205945043001" x2="790.6205945043001" y1="198" y2="210" />
</g>
</g>
<text fill="hsl(240, 100%, 40%)" y="242">4-ary.(logBase ((x ^ 2) + tanh w) ((cos ((x ^ 2) + (2 * z)) + w) + 1) ^ 4) + exp (x + ((sin ((pi * x) + (w ^ 2)) * (cosh ((exp y ^ 2) * sin z) ^ 2)) * (w + 1))).primops 8.28 μs</text>
<g>
<title>8.28 μs ± 800 ns</title>
<rect y="248" rx="5" height="22" width="435.03627800471367" fill="hsl(240, 100%, 80%)" stroke="hsl(240, 100%, 55%)" />
<g stroke="hsl(240, 100%, 40%)"><line x1="392.98654195297905" x2="477.0860140564483" y1="259" y2="259" />
<line x1="392.98654195297905" x2="392.98654195297905" y1="253" y2="265" />
<line x1="477.0860140564483" x2="477.0860140564483" y1="253" y2="265" />
</g>
</g>
<text fill="hsl(300, 100%, 40%)" y="297">4-ary.(logBase ((x ^ 2) + tanh w) ((cos ((x ^ 2) + (2 * z)) + w) + 1) ^ 4) + exp (x + ((sin ((pi * x) + (w ^ 2)) * (cosh ((exp y ^ 2) * sin z) ^ 2)) * (w + 1))).primops/double 5.66 μs</text>
<g>
<title>5.66 μs ± 338 ns</title>
<rect y="303" rx="5" height="22" width="297.49017131848257" fill="hsl(300, 100%, 80%)" stroke="hsl(300, 100%, 55%)" />
<g stroke="hsl(300, 100%, 40%)"><line x1="279.7276396866671" x2="315.25270295029804" y1="314" y2="314" />
<line x1="279.7276396866671" x2="279.7276396866671" y1="308" y2="320" />
<line x1="315.25270295029804" x2="315.25270295029804" y1="308" y2="320" />
</g>
</g>
</g>
</svg>
