<svg xmlns="http://www.w3.org/2000/svg" height="337" width="960.0" font-size="16" font-family="sans-serif" stroke-width="2">
<g transform="translate(10.0 0)">
<text fill="hsl(0, 100%, 40%)" y="22">4-ary.(logBase ((x ^ 2) + tanh w) ((cos ((x ^ 2) + (2 * z)) + w) + 1) ^ 4) + exp (x + ((sin ((pi * x) + (w ^ 2)) * (cosh ((exp y ^ 2) * sin z) ^ 2)) * (w + 1))).transformers 18.2 μs</text>
<g>
<title>18.2 μs ± 1.8 μs</title>
<rect y="28" rx="5" height="22" width="857.036742377475" fill="hsl(0, 100%, 80%)" stroke="hsl(0, 100%, 55%)" />
<g stroke="hsl(0, 100%, 40%)"><line x1="774.07348475495" x2="940.0" y1="39" y2="39" />
<line x1="774.07348475495" x2="774.07348475495" y1="33" y2="45" />
<line x1="940.0" x2="940.0" y1="33" y2="45" />
</g>
</g>
<text fill="hsl(60, 100%, 40%)" y="77">4-ary.(logBase ((x ^ 2) + tanh w) ((cos ((x ^ 2) + (2 * z)) + w) + 1) ^ 4) + exp (x + ((sin ((pi * x) + (w ^ 2)) * (cosh ((exp y ^ 2) * sin z) ^ 2)) * (w + 1))).ad 8.70 μs</text>
<g>
<title>8.70 μs ± 695 ns</title>
<rect y="83" rx="5" height="22" width="408.5620761480212" fill="hsl(60, 100%, 80%)" stroke="hsl(60, 100%, 55%)" />
<g stroke="hsl(60, 100%, 40%)"><line x1="375.91462452094447" x2="441.20952777509797" y1="94" y2="94" />
<line x1="375.91462452094447" x2="375.91462452094447" y1="88" y2="100" />
<line x1="441.20952777509797" x2="441.20952777509797" y1="88" y2="100" />
</g>
</g>
<text fill="hsl(120, 100%, 40%)" y="132">4-ary.(logBase ((x ^ 2) + tanh w) ((cos ((x ^ 2) + (2 * z)) + w) + 1) ^ 4) + exp (x + ((sin ((pi * x) + (w ^ 2)) * (cosh ((exp y ^ 2) * sin z) ^ 2)) * (w + 1))).ad/double 6.99 μs</text>
<g>
<title>6.99 μs ± 409 ns</title>
<rect y="138" rx="5" height="22" width="328.34300350253505" fill="hsl(120, 100%, 80%)" stroke="hsl(120, 100%, 55%)" />
<g stroke="hsl(120, 100%, 40%)"><line x1="309.1079127700319" x2="347.57809423503824" y1="149" y2="149" />
<line x1="309.1079127700319" x2="309.1079127700319" y1="143" y2="155" />
<line x1="347.57809423503824" x2="347.57809423503824" y1="143" y2="155" />
</g>
</g>
<text fill="hsl(180, 100%, 40%)" y="187">4-ary.(logBase ((x ^ 2) + tanh w) ((cos ((x ^ 2) + (2 * z)) + w) + 1) ^ 4) + exp (x + ((sin ((pi * x) + (w ^ 2)) * (cosh ((exp y ^ 2) * sin z) ^ 2)) * (w + 1))).backprop 14.2 μs</text>
<g>
<title>14.2 μs ± 674 ns</title>
<rect y="193" rx="5" height="22" width="669.5395978407948" fill="hsl(180, 100%, 80%)" stroke="hsl(180, 100%, 55%)" />
<g stroke="hsl(180, 100%, 40%)"><line x1="637.8822574380758" x2="701.1969382435138" y1="204" y2="204" />
<line x1="637.8822574380758" x2="637.8822574380758" y1="198" y2="210" />
<line x1="701.1969382435138" x2="701.1969382435138" y1="198" y2="210" />
</g>
</g>
<text fill="hsl(240, 100%, 40%)" y="242">4-ary.(logBase ((x ^ 2) + tanh w) ((cos ((x ^ 2) + (2 * z)) + w) + 1) ^ 4) + exp (x + ((sin ((pi * x) + (w ^ 2)) * (cosh ((exp y ^ 2) * sin z) ^ 2)) * (w + 1))).primops 9.41 μs</text>
<g>
<title>9.41 μs ± 672 ns</title>
<rect y="248" rx="5" height="22" width="442.3385797212868" fill="hsl(240, 100%, 80%)" stroke="hsl(240, 100%, 55%)" />
<g stroke="hsl(240, 100%, 40%)"><line x1="410.75613668434346" x2="473.92102275823015" y1="259" y2="259" />
<line x1="410.75613668434346" x2="410.75613668434346" y1="253" y2="265" />
<line x1="473.92102275823015" x2="473.92102275823015" y1="253" y2="265" />
</g>
</g>
<text fill="hsl(300, 100%, 40%)" y="297">4-ary.(logBase ((x ^ 2) + tanh w) ((cos ((x ^ 2) + (2 * z)) + w) + 1) ^ 4) + exp (x + ((sin ((pi * x) + (w ^ 2)) * (cosh ((exp y ^ 2) * sin z) ^ 2)) * (w + 1))).primops/double 6.47 μs</text>
<g>
<title>6.47 μs ± 328 ns</title>
<rect y="303" rx="5" height="22" width="303.83023277087165" fill="hsl(300, 100%, 80%)" stroke="hsl(300, 100%, 55%)" />
<g stroke="hsl(300, 100%, 40%)"><line x1="288.40945719454294" x2="319.25100834720035" y1="314" y2="314" />
<line x1="288.40945719454294" x2="288.40945719454294" y1="308" y2="320" />
<line x1="319.25100834720035" x2="319.25100834720035" y1="308" y2="320" />
</g>
</g>
</g>
</svg>
